%TF.GenerationSoftware,KiCad,Pcbnew,5.1.10-1.fc33*%
%TF.CreationDate,2021-08-02T15:59:08+02:00*%
%TF.ProjectId,lineata,6c696e65-6174-4612-9e6b-696361645f70,0.1*%
%TF.SameCoordinates,Original*%
%TF.FileFunction,Soldermask,Bot*%
%TF.FilePolarity,Negative*%
%FSLAX46Y46*%
G04 Gerber Fmt 4.6, Leading zero omitted, Abs format (unit mm)*
G04 Created by KiCad (PCBNEW 5.1.10-1.fc33) date 2021-08-02 15:59:08*
%MOMM*%
%LPD*%
G01*
G04 APERTURE LIST*
%ADD10C,0.150000*%
%ADD11C,1.700000*%
%ADD12C,4.000000*%
%ADD13C,2.200000*%
%ADD14C,3.050000*%
%ADD15C,2.000000*%
%ADD16O,1.600000X1.600000*%
%ADD17R,1.600000X1.600000*%
G04 APERTURE END LIST*
%TO.C,D42*%
G36*
G01*
X298393880Y-108224056D02*
X298393880Y-108224056D01*
G75*
G02*
X298799327Y-107167831I730836J325389D01*
G01*
X298799327Y-107167831D01*
G75*
G02*
X299855552Y-107573278I325389J-730836D01*
G01*
X299855552Y-107573278D01*
G75*
G02*
X299450105Y-108629503I-730836J-325389D01*
G01*
X299450105Y-108629503D01*
G75*
G02*
X298393880Y-108224056I-325389J730836D01*
G01*
G37*
D10*
G36*
X291758053Y-112054226D02*
G01*
X291107274Y-110592553D01*
X292568947Y-109941774D01*
X293219726Y-111403447D01*
X291758053Y-112054226D01*
G37*
%TD*%
%TO.C,D40*%
G36*
G01*
X294456880Y-146514556D02*
X294456880Y-146514556D01*
G75*
G02*
X294862327Y-145458331I730836J325389D01*
G01*
X294862327Y-145458331D01*
G75*
G02*
X295918552Y-145863778I325389J-730836D01*
G01*
X295918552Y-145863778D01*
G75*
G02*
X295513105Y-146920003I-730836J-325389D01*
G01*
X295513105Y-146920003D01*
G75*
G02*
X294456880Y-146514556I-325389J730836D01*
G01*
G37*
G36*
X287821053Y-150344726D02*
G01*
X287170274Y-148883053D01*
X288631947Y-148232274D01*
X289282726Y-149693947D01*
X287821053Y-150344726D01*
G37*
%TD*%
%TO.C,D39*%
G36*
G01*
X286771880Y-129115556D02*
X286771880Y-129115556D01*
G75*
G02*
X287177327Y-128059331I730836J325389D01*
G01*
X287177327Y-128059331D01*
G75*
G02*
X288233552Y-128464778I325389J-730836D01*
G01*
X288233552Y-128464778D01*
G75*
G02*
X287828105Y-129521003I-730836J-325389D01*
G01*
X287828105Y-129521003D01*
G75*
G02*
X286771880Y-129115556I-325389J730836D01*
G01*
G37*
G36*
X280136053Y-132945726D02*
G01*
X279485274Y-131484053D01*
X280946947Y-130833274D01*
X281597726Y-132294947D01*
X280136053Y-132945726D01*
G37*
%TD*%
%TO.C,D38*%
G36*
G01*
X278962880Y-111653056D02*
X278962880Y-111653056D01*
G75*
G02*
X279368327Y-110596831I730836J325389D01*
G01*
X279368327Y-110596831D01*
G75*
G02*
X280424552Y-111002278I325389J-730836D01*
G01*
X280424552Y-111002278D01*
G75*
G02*
X280019105Y-112058503I-730836J-325389D01*
G01*
X280019105Y-112058503D01*
G75*
G02*
X278962880Y-111653056I-325389J730836D01*
G01*
G37*
G36*
X272327053Y-115483226D02*
G01*
X271676274Y-114021553D01*
X273137947Y-113370774D01*
X273788726Y-114832447D01*
X272327053Y-115483226D01*
G37*
%TD*%
%TO.C,D37*%
G36*
G01*
X271342880Y-94279902D02*
X271342880Y-94279902D01*
G75*
G02*
X271748327Y-93223677I730836J325389D01*
G01*
X271748327Y-93223677D01*
G75*
G02*
X272804552Y-93629124I325389J-730836D01*
G01*
X272804552Y-93629124D01*
G75*
G02*
X272399105Y-94685349I-730836J-325389D01*
G01*
X272399105Y-94685349D01*
G75*
G02*
X271342880Y-94279902I-325389J730836D01*
G01*
G37*
G36*
X264707053Y-98110072D02*
G01*
X264056274Y-96648399D01*
X265517947Y-95997620D01*
X266168726Y-97459293D01*
X264707053Y-98110072D01*
G37*
%TD*%
%TO.C,D36*%
G36*
G01*
X275271880Y-149816556D02*
X275271880Y-149816556D01*
G75*
G02*
X275677327Y-148760331I730836J325389D01*
G01*
X275677327Y-148760331D01*
G75*
G02*
X276733552Y-149165778I325389J-730836D01*
G01*
X276733552Y-149165778D01*
G75*
G02*
X276328105Y-150222003I-730836J-325389D01*
G01*
X276328105Y-150222003D01*
G75*
G02*
X275271880Y-149816556I-325389J730836D01*
G01*
G37*
G36*
X268636053Y-153646726D02*
G01*
X267985274Y-152185053D01*
X269446947Y-151534274D01*
X270097726Y-152995947D01*
X268636053Y-153646726D01*
G37*
%TD*%
%TO.C,D35*%
G36*
G01*
X267342380Y-132529902D02*
X267342380Y-132529902D01*
G75*
G02*
X267747827Y-131473677I730836J325389D01*
G01*
X267747827Y-131473677D01*
G75*
G02*
X268804052Y-131879124I325389J-730836D01*
G01*
X268804052Y-131879124D01*
G75*
G02*
X268398605Y-132935349I-730836J-325389D01*
G01*
X268398605Y-132935349D01*
G75*
G02*
X267342380Y-132529902I-325389J730836D01*
G01*
G37*
G36*
X260706553Y-136360072D02*
G01*
X260055774Y-134898399D01*
X261517447Y-134247620D01*
X262168226Y-135709293D01*
X260706553Y-136360072D01*
G37*
%TD*%
D11*
%TO.C,SW38*%
X284793128Y-119556546D03*
X275511506Y-123688990D03*
D12*
X280152317Y-121622768D03*
D13*
X275638597Y-120852029D03*
X280406500Y-115948846D03*
%TD*%
D11*
%TO.C,SW37*%
X277068128Y-102181546D03*
X267786506Y-106313990D03*
D12*
X272427317Y-104247768D03*
D13*
X267913597Y-103477029D03*
X272681500Y-98573846D03*
%TD*%
D11*
%TO.C,SW30*%
X250028128Y-135061546D03*
X240746506Y-139193990D03*
D12*
X245387317Y-137127768D03*
D13*
X240873597Y-136357029D03*
X245641500Y-131453846D03*
%TD*%
D11*
%TO.C,SW29*%
X242253128Y-117661546D03*
X232971506Y-121793990D03*
D12*
X237612317Y-119727768D03*
D13*
X233098597Y-118957029D03*
X237866500Y-114053846D03*
%TD*%
D11*
%TO.C,SW33*%
X257703128Y-105561546D03*
X248421506Y-109693990D03*
D12*
X253062317Y-107627768D03*
D13*
X248548597Y-106857029D03*
X253316500Y-101953846D03*
%TD*%
D11*
%TO.C,SW34*%
X265453128Y-122961546D03*
X256171506Y-127093990D03*
D12*
X260812317Y-125027768D03*
D13*
X256298597Y-124257029D03*
X261066500Y-119353846D03*
%TD*%
D11*
%TO.C,SW35*%
X273203128Y-140361546D03*
X263921506Y-144493990D03*
D12*
X268562317Y-142427768D03*
D13*
X264048597Y-141657029D03*
X268816500Y-136753846D03*
%TD*%
D11*
%TO.C,SW39*%
X292543128Y-136956546D03*
X283261506Y-141088990D03*
D12*
X287902317Y-139022768D03*
D13*
X283388597Y-138252029D03*
X288156500Y-133348846D03*
%TD*%
%TO.C,D34*%
G36*
G01*
X259658880Y-115129902D02*
X259658880Y-115129902D01*
G75*
G02*
X260064327Y-114073677I730836J325389D01*
G01*
X260064327Y-114073677D01*
G75*
G02*
X261120552Y-114479124I325389J-730836D01*
G01*
X261120552Y-114479124D01*
G75*
G02*
X260715105Y-115535349I-730836J-325389D01*
G01*
X260715105Y-115535349D01*
G75*
G02*
X259658880Y-115129902I-325389J730836D01*
G01*
G37*
D10*
G36*
X253023053Y-118960072D02*
G01*
X252372274Y-117498399D01*
X253833947Y-116847620D01*
X254484726Y-118309293D01*
X253023053Y-118960072D01*
G37*
%TD*%
%TO.C,D33*%
G36*
G01*
X251911880Y-97679902D02*
X251911880Y-97679902D01*
G75*
G02*
X252317327Y-96623677I730836J325389D01*
G01*
X252317327Y-96623677D01*
G75*
G02*
X253373552Y-97029124I325389J-730836D01*
G01*
X253373552Y-97029124D01*
G75*
G02*
X252968105Y-98085349I-730836J-325389D01*
G01*
X252968105Y-98085349D01*
G75*
G02*
X251911880Y-97679902I-325389J730836D01*
G01*
G37*
G36*
X245276053Y-101510072D02*
G01*
X244625274Y-100048399D01*
X246086947Y-99397620D01*
X246737726Y-100859293D01*
X245276053Y-101510072D01*
G37*
%TD*%
%TO.C,D31*%
G36*
G01*
X251911880Y-144546056D02*
X251911880Y-144546056D01*
G75*
G02*
X252317327Y-143489831I730836J325389D01*
G01*
X252317327Y-143489831D01*
G75*
G02*
X253373552Y-143895278I325389J-730836D01*
G01*
X253373552Y-143895278D01*
G75*
G02*
X252968105Y-144951503I-730836J-325389D01*
G01*
X252968105Y-144951503D01*
G75*
G02*
X251911880Y-144546056I-325389J730836D01*
G01*
G37*
G36*
X245276053Y-148376226D02*
G01*
X244625274Y-146914553D01*
X246086947Y-146263774D01*
X246737726Y-147725447D01*
X245276053Y-148376226D01*
G37*
%TD*%
%TO.C,D30*%
G36*
G01*
X244291880Y-127229902D02*
X244291880Y-127229902D01*
G75*
G02*
X244697327Y-126173677I730836J325389D01*
G01*
X244697327Y-126173677D01*
G75*
G02*
X245753552Y-126579124I325389J-730836D01*
G01*
X245753552Y-126579124D01*
G75*
G02*
X245348105Y-127635349I-730836J-325389D01*
G01*
X245348105Y-127635349D01*
G75*
G02*
X244291880Y-127229902I-325389J730836D01*
G01*
G37*
G36*
X237656053Y-131060072D02*
G01*
X237005274Y-129598399D01*
X238466947Y-128947620D01*
X239117726Y-130409293D01*
X237656053Y-131060072D01*
G37*
%TD*%
%TO.C,D29*%
G36*
G01*
X236521880Y-109748056D02*
X236521880Y-109748056D01*
G75*
G02*
X236927327Y-108691831I730836J325389D01*
G01*
X236927327Y-108691831D01*
G75*
G02*
X237983552Y-109097278I325389J-730836D01*
G01*
X237983552Y-109097278D01*
G75*
G02*
X237578105Y-110153503I-730836J-325389D01*
G01*
X237578105Y-110153503D01*
G75*
G02*
X236521880Y-109748056I-325389J730836D01*
G01*
G37*
G36*
X229886053Y-113578226D02*
G01*
X229235274Y-112116553D01*
X230696947Y-111465774D01*
X231347726Y-112927447D01*
X229886053Y-113578226D01*
G37*
%TD*%
D11*
%TO.C,SW26*%
X234528128Y-147161546D03*
X225246506Y-151293990D03*
D12*
X229887317Y-149227768D03*
D13*
X225373597Y-148457029D03*
X230141500Y-143553846D03*
%TD*%
D11*
%TO.C,SW31*%
X257753128Y-152461546D03*
X248471506Y-156593990D03*
D12*
X253112317Y-154527768D03*
D13*
X248598597Y-153757029D03*
X253366500Y-148853846D03*
%TD*%
D11*
%TO.C,SW27*%
X242278128Y-164561546D03*
X232996506Y-168693990D03*
D12*
X237637317Y-166627768D03*
D13*
X233123597Y-165857029D03*
X237891500Y-160953846D03*
%TD*%
%TO.C,D32*%
G36*
G01*
X259595380Y-162072056D02*
X259595380Y-162072056D01*
G75*
G02*
X260000827Y-161015831I730836J325389D01*
G01*
X260000827Y-161015831D01*
G75*
G02*
X261057052Y-161421278I325389J-730836D01*
G01*
X261057052Y-161421278D01*
G75*
G02*
X260651605Y-162477503I-730836J-325389D01*
G01*
X260651605Y-162477503D01*
G75*
G02*
X259595380Y-162072056I-325389J730836D01*
G01*
G37*
D10*
G36*
X252959553Y-165902226D02*
G01*
X252308774Y-164440553D01*
X253770447Y-163789774D01*
X254421226Y-165251447D01*
X252959553Y-165902226D01*
G37*
%TD*%
%TO.C,D28*%
G36*
G01*
X244144880Y-174073556D02*
X244144880Y-174073556D01*
G75*
G02*
X244550327Y-173017331I730836J325389D01*
G01*
X244550327Y-173017331D01*
G75*
G02*
X245606552Y-173422778I325389J-730836D01*
G01*
X245606552Y-173422778D01*
G75*
G02*
X245201105Y-174479003I-730836J-325389D01*
G01*
X245201105Y-174479003D01*
G75*
G02*
X244144880Y-174073556I-325389J730836D01*
G01*
G37*
G36*
X237509053Y-177903726D02*
G01*
X236858274Y-176442053D01*
X238319947Y-175791274D01*
X238970726Y-177252947D01*
X237509053Y-177903726D01*
G37*
%TD*%
%TO.C,D27*%
G36*
G01*
X236417880Y-156674556D02*
X236417880Y-156674556D01*
G75*
G02*
X236823327Y-155618331I730836J325389D01*
G01*
X236823327Y-155618331D01*
G75*
G02*
X237879552Y-156023778I325389J-730836D01*
G01*
X237879552Y-156023778D01*
G75*
G02*
X237474105Y-157080003I-730836J-325389D01*
G01*
X237474105Y-157080003D01*
G75*
G02*
X236417880Y-156674556I-325389J730836D01*
G01*
G37*
G36*
X229782053Y-160504726D02*
G01*
X229131274Y-159043053D01*
X230592947Y-158392274D01*
X231243726Y-159853947D01*
X229782053Y-160504726D01*
G37*
%TD*%
%TO.C,D26*%
G36*
G01*
X228714380Y-139275556D02*
X228714380Y-139275556D01*
G75*
G02*
X229119827Y-138219331I730836J325389D01*
G01*
X229119827Y-138219331D01*
G75*
G02*
X230176052Y-138624778I325389J-730836D01*
G01*
X230176052Y-138624778D01*
G75*
G02*
X229770605Y-139681003I-730836J-325389D01*
G01*
X229770605Y-139681003D01*
G75*
G02*
X228714380Y-139275556I-325389J730836D01*
G01*
G37*
G36*
X222078553Y-143105726D02*
G01*
X221427774Y-141644053D01*
X222889447Y-140993274D01*
X223540226Y-142454947D01*
X222078553Y-143105726D01*
G37*
%TD*%
%TO.C,D25*%
G36*
G01*
X220967380Y-121813902D02*
X220967380Y-121813902D01*
G75*
G02*
X221372827Y-120757677I730836J325389D01*
G01*
X221372827Y-120757677D01*
G75*
G02*
X222429052Y-121163124I325389J-730836D01*
G01*
X222429052Y-121163124D01*
G75*
G02*
X222023605Y-122219349I-730836J-325389D01*
G01*
X222023605Y-122219349D01*
G75*
G02*
X220967380Y-121813902I-325389J730836D01*
G01*
G37*
G36*
X214331553Y-125644072D02*
G01*
X213680774Y-124182399D01*
X215142447Y-123531620D01*
X215793226Y-124993293D01*
X214331553Y-125644072D01*
G37*
%TD*%
D14*
%TO.C,SW28*%
X260502562Y-200748697D03*
X250822230Y-179006315D03*
D12*
X236899797Y-185204982D03*
X246580129Y-206947364D03*
D11*
X251333800Y-197365474D03*
X247201356Y-188083852D03*
D12*
X249267578Y-192724663D03*
D13*
X250038317Y-188210943D03*
X254941500Y-192978846D03*
%TD*%
D11*
%TO.C,SW32*%
X265833800Y-183090474D03*
X261701356Y-173808852D03*
D12*
X263767578Y-178449663D03*
D13*
X264538317Y-173935943D03*
X269441500Y-178703846D03*
%TD*%
D11*
%TO.C,SW36*%
X279333800Y-166640474D03*
X275201356Y-157358852D03*
D12*
X277267578Y-161999663D03*
D13*
X278038317Y-157485943D03*
X282941500Y-162253846D03*
%TD*%
D11*
%TO.C,SW40*%
X300293128Y-154356546D03*
X291011506Y-158488990D03*
D12*
X295652317Y-156422768D03*
D13*
X291138597Y-155652029D03*
X295906500Y-150748846D03*
%TD*%
D11*
%TO.C,SW25*%
X226778128Y-129761546D03*
X217496506Y-133893990D03*
D12*
X222137317Y-131827768D03*
D13*
X217623597Y-131057029D03*
X222391500Y-126153846D03*
%TD*%
D11*
%TO.C,SW44*%
X319628128Y-150961546D03*
X310346506Y-155093990D03*
D12*
X314987317Y-153027768D03*
D13*
X310473597Y-152257029D03*
X315241500Y-147353846D03*
%TD*%
%TO.C,D47*%
G36*
G01*
X327413380Y-126702556D02*
X327413380Y-126702556D01*
G75*
G02*
X327818827Y-125646331I730836J325389D01*
G01*
X327818827Y-125646331D01*
G75*
G02*
X328875052Y-126051778I325389J-730836D01*
G01*
X328875052Y-126051778D01*
G75*
G02*
X328469605Y-127108003I-730836J-325389D01*
G01*
X328469605Y-127108003D01*
G75*
G02*
X327413380Y-126702556I-325389J730836D01*
G01*
G37*
D10*
G36*
X320777553Y-130532726D02*
G01*
X320126774Y-129071053D01*
X321588447Y-128420274D01*
X322239226Y-129881947D01*
X320777553Y-130532726D01*
G37*
%TD*%
%TO.C,D46*%
G36*
G01*
X319602880Y-109279902D02*
X319602880Y-109279902D01*
G75*
G02*
X320008327Y-108223677I730836J325389D01*
G01*
X320008327Y-108223677D01*
G75*
G02*
X321064552Y-108629124I325389J-730836D01*
G01*
X321064552Y-108629124D01*
G75*
G02*
X320659105Y-109685349I-730836J-325389D01*
G01*
X320659105Y-109685349D01*
G75*
G02*
X319602880Y-109279902I-325389J730836D01*
G01*
G37*
G36*
X312967053Y-113110072D02*
G01*
X312316274Y-111648399D01*
X313777947Y-110997620D01*
X314428726Y-112459293D01*
X312967053Y-113110072D01*
G37*
%TD*%
%TO.C,D44*%
G36*
G01*
X313871880Y-143085556D02*
X313871880Y-143085556D01*
G75*
G02*
X314277327Y-142029331I730836J325389D01*
G01*
X314277327Y-142029331D01*
G75*
G02*
X315333552Y-142434778I325389J-730836D01*
G01*
X315333552Y-142434778D01*
G75*
G02*
X314928105Y-143491003I-730836J-325389D01*
G01*
X314928105Y-143491003D01*
G75*
G02*
X313871880Y-143085556I-325389J730836D01*
G01*
G37*
G36*
X307236053Y-146915726D02*
G01*
X306585274Y-145454053D01*
X308046947Y-144803274D01*
X308697726Y-146264947D01*
X307236053Y-146915726D01*
G37*
%TD*%
%TO.C,D43*%
G36*
G01*
X306013880Y-125686556D02*
X306013880Y-125686556D01*
G75*
G02*
X306419327Y-124630331I730836J325389D01*
G01*
X306419327Y-124630331D01*
G75*
G02*
X307475552Y-125035778I325389J-730836D01*
G01*
X307475552Y-125035778D01*
G75*
G02*
X307070105Y-126092003I-730836J-325389D01*
G01*
X307070105Y-126092003D01*
G75*
G02*
X306013880Y-125686556I-325389J730836D01*
G01*
G37*
G36*
X299378053Y-129516726D02*
G01*
X298727274Y-128055053D01*
X300188947Y-127404274D01*
X300839726Y-128865947D01*
X299378053Y-129516726D01*
G37*
%TD*%
D11*
%TO.C,SW41*%
X296393128Y-98756546D03*
X287111506Y-102888990D03*
D12*
X291752317Y-100822768D03*
D13*
X287238597Y-100052029D03*
X292006500Y-95148846D03*
%TD*%
D11*
%TO.C,SW43*%
X311878128Y-133586546D03*
X302596506Y-137718990D03*
D12*
X307237317Y-135652768D03*
D13*
X302723597Y-134882029D03*
X307491500Y-129978846D03*
%TD*%
D11*
%TO.C,SW42*%
X304153128Y-116161546D03*
X294871506Y-120293990D03*
D12*
X299512317Y-118227768D03*
D13*
X294998597Y-117457029D03*
X299766500Y-112553846D03*
%TD*%
D11*
%TO.C,SW45*%
X317678128Y-99711546D03*
X308396506Y-103843990D03*
D12*
X313037317Y-101777768D03*
D13*
X308523597Y-101007029D03*
X313291500Y-96103846D03*
%TD*%
D11*
%TO.C,SW46*%
X325428128Y-117111546D03*
X316146506Y-121243990D03*
D12*
X320787317Y-119177768D03*
D13*
X316273597Y-118407029D03*
X321041500Y-113503846D03*
%TD*%
D11*
%TO.C,SW47*%
X333178128Y-134536546D03*
X323896506Y-138668990D03*
D12*
X328537317Y-136602768D03*
D13*
X324023597Y-135832029D03*
X328791500Y-130928846D03*
%TD*%
D11*
%TO.C,SW48*%
X340903128Y-151911546D03*
X331621506Y-156043990D03*
D12*
X336262317Y-153977768D03*
D13*
X331748597Y-153207029D03*
X336516500Y-148303846D03*
%TD*%
%TO.C,D48*%
G36*
G01*
X335096880Y-144101556D02*
X335096880Y-144101556D01*
G75*
G02*
X335502327Y-143045331I730836J325389D01*
G01*
X335502327Y-143045331D01*
G75*
G02*
X336558552Y-143450778I325389J-730836D01*
G01*
X336558552Y-143450778D01*
G75*
G02*
X336153105Y-144507003I-730836J-325389D01*
G01*
X336153105Y-144507003D01*
G75*
G02*
X335096880Y-144101556I-325389J730836D01*
G01*
G37*
D10*
G36*
X328461053Y-147931726D02*
G01*
X327810274Y-146470053D01*
X329271947Y-145819274D01*
X329922726Y-147280947D01*
X328461053Y-147931726D01*
G37*
%TD*%
%TO.C,D45*%
G36*
G01*
X311792380Y-91777556D02*
X311792380Y-91777556D01*
G75*
G02*
X312197827Y-90721331I730836J325389D01*
G01*
X312197827Y-90721331D01*
G75*
G02*
X313254052Y-91126778I325389J-730836D01*
G01*
X313254052Y-91126778D01*
G75*
G02*
X312848605Y-92183003I-730836J-325389D01*
G01*
X312848605Y-92183003D01*
G75*
G02*
X311792380Y-91777556I-325389J730836D01*
G01*
G37*
G36*
X305156553Y-95607726D02*
G01*
X304505774Y-94146053D01*
X305967447Y-93495274D01*
X306618226Y-94956947D01*
X305156553Y-95607726D01*
G37*
%TD*%
%TO.C,D41*%
G36*
G01*
X290519880Y-90825056D02*
X290519880Y-90825056D01*
G75*
G02*
X290925327Y-89768831I730836J325389D01*
G01*
X290925327Y-89768831D01*
G75*
G02*
X291981552Y-90174278I325389J-730836D01*
G01*
X291981552Y-90174278D01*
G75*
G02*
X291576105Y-91230503I-730836J-325389D01*
G01*
X291576105Y-91230503D01*
G75*
G02*
X290519880Y-90825056I-325389J730836D01*
G01*
G37*
G36*
X283884053Y-94655226D02*
G01*
X283233274Y-93193553D01*
X284694947Y-92542774D01*
X285345726Y-94004447D01*
X283884053Y-94655226D01*
G37*
%TD*%
D15*
%TO.C,SW49*%
X196700000Y-128016000D03*
X196700000Y-123516000D03*
X203200000Y-128016000D03*
X203200000Y-123516000D03*
%TD*%
D16*
%TO.C,U1*%
X192405000Y-120523000D03*
X192405000Y-117983000D03*
X192405000Y-115443000D03*
X207645000Y-92583000D03*
X192405000Y-112903000D03*
X207645000Y-95123000D03*
X192405000Y-110363000D03*
X207645000Y-97663000D03*
X192405000Y-107823000D03*
X207645000Y-100203000D03*
X192405000Y-105283000D03*
X207645000Y-102743000D03*
X192405000Y-102743000D03*
X207645000Y-105283000D03*
X192405000Y-100203000D03*
X207645000Y-107823000D03*
X192405000Y-97663000D03*
X207645000Y-110363000D03*
X192405000Y-95123000D03*
X207645000Y-112903000D03*
X192405000Y-92583000D03*
X207645000Y-115443000D03*
X207645000Y-117983000D03*
D17*
X207645000Y-120523000D03*
%TD*%
%TO.C,D11*%
G36*
G01*
X113276620Y-129052056D02*
X113276620Y-129052056D01*
G75*
G02*
X112220395Y-129457503I-730836J325389D01*
G01*
X112220395Y-129457503D01*
G75*
G02*
X111814948Y-128401278I325389J730836D01*
G01*
X111814948Y-128401278D01*
G75*
G02*
X112871173Y-127995831I730836J-325389D01*
G01*
X112871173Y-127995831D01*
G75*
G02*
X113276620Y-129052056I-325389J-730836D01*
G01*
G37*
D10*
G36*
X120563226Y-131420553D02*
G01*
X119912447Y-132882226D01*
X118450774Y-132231447D01*
X119101553Y-130769774D01*
X120563226Y-131420553D01*
G37*
%TD*%
%TO.C,D9*%
G36*
G01*
X128770620Y-94254056D02*
X128770620Y-94254056D01*
G75*
G02*
X127714395Y-94659503I-730836J325389D01*
G01*
X127714395Y-94659503D01*
G75*
G02*
X127308948Y-93603278I325389J730836D01*
G01*
X127308948Y-93603278D01*
G75*
G02*
X128365173Y-93197831I730836J-325389D01*
G01*
X128365173Y-93197831D01*
G75*
G02*
X128770620Y-94254056I-325389J-730836D01*
G01*
G37*
G36*
X136057226Y-96622553D02*
G01*
X135406447Y-98084226D01*
X133944774Y-97433447D01*
X134595553Y-95971774D01*
X136057226Y-96622553D01*
G37*
%TD*%
%TO.C,D13*%
G36*
G01*
X148201620Y-97683056D02*
X148201620Y-97683056D01*
G75*
G02*
X147145395Y-98088503I-730836J325389D01*
G01*
X147145395Y-98088503D01*
G75*
G02*
X146739948Y-97032278I325389J730836D01*
G01*
X146739948Y-97032278D01*
G75*
G02*
X147796173Y-96626831I730836J-325389D01*
G01*
X147796173Y-96626831D01*
G75*
G02*
X148201620Y-97683056I-325389J-730836D01*
G01*
G37*
G36*
X155488226Y-100051553D02*
G01*
X154837447Y-101513226D01*
X153375774Y-100862447D01*
X154026553Y-99400774D01*
X155488226Y-100051553D01*
G37*
%TD*%
%TO.C,D1*%
G36*
G01*
X88105220Y-91802956D02*
X88105220Y-91802956D01*
G75*
G02*
X87048995Y-92208403I-730836J325389D01*
G01*
X87048995Y-92208403D01*
G75*
G02*
X86643548Y-91152178I325389J730836D01*
G01*
X86643548Y-91152178D01*
G75*
G02*
X87699773Y-90746731I730836J-325389D01*
G01*
X87699773Y-90746731D01*
G75*
G02*
X88105220Y-91802956I-325389J-730836D01*
G01*
G37*
G36*
X95391826Y-94171453D02*
G01*
X94741047Y-95633126D01*
X93279374Y-94982347D01*
X93930153Y-93520674D01*
X95391826Y-94171453D01*
G37*
%TD*%
%TO.C,D17*%
G36*
G01*
X163822620Y-109875056D02*
X163822620Y-109875056D01*
G75*
G02*
X162766395Y-110280503I-730836J325389D01*
G01*
X162766395Y-110280503D01*
G75*
G02*
X162360948Y-109224278I325389J730836D01*
G01*
X162360948Y-109224278D01*
G75*
G02*
X163417173Y-108818831I730836J-325389D01*
G01*
X163417173Y-108818831D01*
G75*
G02*
X163822620Y-109875056I-325389J-730836D01*
G01*
G37*
G36*
X171109226Y-112243553D02*
G01*
X170458447Y-113705226D01*
X168996774Y-113054447D01*
X169647553Y-111592774D01*
X171109226Y-112243553D01*
G37*
%TD*%
%TO.C,D21*%
G36*
G01*
X179126120Y-121813056D02*
X179126120Y-121813056D01*
G75*
G02*
X178069895Y-122218503I-730836J325389D01*
G01*
X178069895Y-122218503D01*
G75*
G02*
X177664448Y-121162278I325389J730836D01*
G01*
X177664448Y-121162278D01*
G75*
G02*
X178720673Y-120756831I730836J-325389D01*
G01*
X178720673Y-120756831D01*
G75*
G02*
X179126120Y-121813056I-325389J-730836D01*
G01*
G37*
G36*
X186412726Y-124181553D02*
G01*
X185761947Y-125643226D01*
X184300274Y-124992447D01*
X184951053Y-123530774D01*
X186412726Y-124181553D01*
G37*
%TD*%
%TO.C,D5*%
G36*
G01*
X109466620Y-90825056D02*
X109466620Y-90825056D01*
G75*
G02*
X108410395Y-91230503I-730836J325389D01*
G01*
X108410395Y-91230503D01*
G75*
G02*
X108004948Y-90174278I325389J730836D01*
G01*
X108004948Y-90174278D01*
G75*
G02*
X109061173Y-89768831I730836J-325389D01*
G01*
X109061173Y-89768831D01*
G75*
G02*
X109466620Y-90825056I-325389J-730836D01*
G01*
G37*
G36*
X116753226Y-93193553D02*
G01*
X116102447Y-94655226D01*
X114640774Y-94004447D01*
X115291553Y-92542774D01*
X116753226Y-93193553D01*
G37*
%TD*%
D11*
%TO.C,SW16*%
X124821922Y-157366317D03*
X120689478Y-166647939D03*
D12*
X122755700Y-162007128D03*
D13*
X118885628Y-164454625D03*
X119148000Y-157620500D03*
%TD*%
D14*
%TO.C,SW24*%
X149251048Y-179038780D03*
X139570716Y-200781162D03*
D12*
X153493148Y-206979828D03*
X163173480Y-185237447D03*
D11*
X152871922Y-188116317D03*
X148739478Y-197397939D03*
D12*
X150805700Y-192757128D03*
D13*
X146935628Y-195204625D03*
X147198000Y-188370500D03*
%TD*%
D11*
%TO.C,SW23*%
X167052183Y-168711722D03*
X157770561Y-164579278D03*
D12*
X162411372Y-166645500D03*
D13*
X159963875Y-162775428D03*
X166798000Y-163037800D03*
%TD*%
D11*
%TO.C,SW22*%
X174802183Y-151319422D03*
X165520561Y-147186978D03*
D12*
X170161372Y-149253200D03*
D13*
X167713875Y-145383128D03*
X174548000Y-145645500D03*
%TD*%
D11*
%TO.C,SW21*%
X182552183Y-133894422D03*
X173270561Y-129761978D03*
D12*
X177911372Y-131828200D03*
D13*
X175463875Y-127958128D03*
X182298000Y-128220500D03*
%TD*%
D11*
%TO.C,SW20*%
X138371922Y-173841317D03*
X134239478Y-183122939D03*
D12*
X136305700Y-178482128D03*
D13*
X132435628Y-180929625D03*
X132698000Y-174095500D03*
%TD*%
D11*
%TO.C,SW19*%
X151602183Y-156619422D03*
X142320561Y-152486978D03*
D12*
X146961372Y-154553200D03*
D13*
X144513875Y-150683128D03*
X151348000Y-150945500D03*
%TD*%
D11*
%TO.C,SW18*%
X159352183Y-139194422D03*
X150070561Y-135061978D03*
D12*
X154711372Y-137128200D03*
D13*
X152263875Y-133258128D03*
X159098000Y-133520500D03*
%TD*%
D11*
%TO.C,SW17*%
X167102183Y-121794422D03*
X157820561Y-117661978D03*
D12*
X162461372Y-119728200D03*
D13*
X160013875Y-115858128D03*
X166848000Y-116120500D03*
%TD*%
D11*
%TO.C,SW15*%
X136127183Y-144511722D03*
X126845561Y-140379278D03*
D12*
X131486372Y-142445500D03*
D13*
X129038875Y-138575428D03*
X135873000Y-138837800D03*
%TD*%
D11*
%TO.C,SW14*%
X143877183Y-127119422D03*
X134595561Y-122986978D03*
D12*
X139236372Y-125053200D03*
D13*
X136788875Y-121183128D03*
X143623000Y-121445500D03*
%TD*%
D11*
%TO.C,SW13*%
X151652183Y-109694422D03*
X142370561Y-105561978D03*
D12*
X147011372Y-107628200D03*
D13*
X144563875Y-103758128D03*
X151398000Y-104020500D03*
%TD*%
D11*
%TO.C,SW12*%
X109052183Y-158519422D03*
X99770561Y-154386978D03*
D12*
X104411372Y-156453200D03*
D13*
X101963875Y-152583128D03*
X108798000Y-152845500D03*
%TD*%
D11*
%TO.C,SW11*%
X116802183Y-141094422D03*
X107520561Y-136961978D03*
D12*
X112161372Y-139028200D03*
D13*
X109713875Y-135158128D03*
X116548000Y-135420500D03*
%TD*%
D11*
%TO.C,SW10*%
X124552183Y-123694422D03*
X115270561Y-119561978D03*
D12*
X119911372Y-121628200D03*
D13*
X117463875Y-117758128D03*
X124298000Y-118020500D03*
%TD*%
D11*
%TO.C,SW9*%
X132302183Y-106294422D03*
X123020561Y-102161978D03*
D12*
X127661372Y-104228200D03*
D13*
X125213875Y-100358128D03*
X132048000Y-100620500D03*
%TD*%
D11*
%TO.C,SW8*%
X89702183Y-155119422D03*
X80420561Y-150986978D03*
D12*
X85061372Y-153053200D03*
D13*
X82613875Y-149183128D03*
X89448000Y-149445500D03*
%TD*%
D11*
%TO.C,SW7*%
X97452183Y-137694422D03*
X88170561Y-133561978D03*
D12*
X92811372Y-135628200D03*
D13*
X90363875Y-131758128D03*
X97198000Y-132020500D03*
%TD*%
D11*
%TO.C,SW6*%
X105202183Y-120294422D03*
X95920561Y-116161978D03*
D12*
X100561372Y-118228200D03*
D13*
X98113875Y-114358128D03*
X104948000Y-114620500D03*
%TD*%
D11*
%TO.C,SW5*%
X112952183Y-102894422D03*
X103670561Y-98761978D03*
D12*
X108311372Y-100828200D03*
D13*
X105863875Y-96958128D03*
X112698000Y-97220500D03*
%TD*%
D11*
%TO.C,SW4*%
X68427183Y-156069422D03*
X59145561Y-151936978D03*
D12*
X63786372Y-154003200D03*
D13*
X61338875Y-150133128D03*
X68173000Y-150395500D03*
%TD*%
D11*
%TO.C,SW3*%
X76177183Y-138669422D03*
X66895561Y-134536978D03*
D12*
X71536372Y-136603200D03*
D13*
X69088875Y-132733128D03*
X75923000Y-132995500D03*
%TD*%
D11*
%TO.C,SW2*%
X83927183Y-121269422D03*
X74645561Y-117136978D03*
D12*
X79286372Y-119203200D03*
D13*
X76838875Y-115333128D03*
X83673000Y-115595500D03*
%TD*%
D11*
%TO.C,SW1*%
X91677183Y-103869422D03*
X82395561Y-99736978D03*
D12*
X87036372Y-101803200D03*
D13*
X84588875Y-97933128D03*
X91423000Y-98195500D03*
%TD*%
%TO.C,D24*%
G36*
G01*
X155821620Y-174073556D02*
X155821620Y-174073556D01*
G75*
G02*
X154765395Y-174479003I-730836J325389D01*
G01*
X154765395Y-174479003D01*
G75*
G02*
X154359948Y-173422778I325389J730836D01*
G01*
X154359948Y-173422778D01*
G75*
G02*
X155416173Y-173017331I730836J-325389D01*
G01*
X155416173Y-173017331D01*
G75*
G02*
X155821620Y-174073556I-325389J-730836D01*
G01*
G37*
D10*
G36*
X163108226Y-176442053D02*
G01*
X162457447Y-177903726D01*
X160995774Y-177252947D01*
X161646553Y-175791274D01*
X163108226Y-176442053D01*
G37*
%TD*%
%TO.C,D23*%
G36*
G01*
X163568620Y-156738056D02*
X163568620Y-156738056D01*
G75*
G02*
X162512395Y-157143503I-730836J325389D01*
G01*
X162512395Y-157143503D01*
G75*
G02*
X162106948Y-156087278I325389J730836D01*
G01*
X162106948Y-156087278D01*
G75*
G02*
X163163173Y-155681831I730836J-325389D01*
G01*
X163163173Y-155681831D01*
G75*
G02*
X163568620Y-156738056I-325389J-730836D01*
G01*
G37*
G36*
X170855226Y-159106553D02*
G01*
X170204447Y-160568226D01*
X168742774Y-159917447D01*
X169393553Y-158455774D01*
X170855226Y-159106553D01*
G37*
%TD*%
%TO.C,D22*%
G36*
G01*
X171315620Y-139275556D02*
X171315620Y-139275556D01*
G75*
G02*
X170259395Y-139681003I-730836J325389D01*
G01*
X170259395Y-139681003D01*
G75*
G02*
X169853948Y-138624778I325389J730836D01*
G01*
X169853948Y-138624778D01*
G75*
G02*
X170910173Y-138219331I730836J-325389D01*
G01*
X170910173Y-138219331D01*
G75*
G02*
X171315620Y-139275556I-325389J-730836D01*
G01*
G37*
G36*
X178602226Y-141644053D02*
G01*
X177951447Y-143105726D01*
X176489774Y-142454947D01*
X177140553Y-140993274D01*
X178602226Y-141644053D01*
G37*
%TD*%
%TO.C,D20*%
G36*
G01*
X140391120Y-162008556D02*
X140391120Y-162008556D01*
G75*
G02*
X139334895Y-162414003I-730836J325389D01*
G01*
X139334895Y-162414003D01*
G75*
G02*
X138929448Y-161357778I325389J730836D01*
G01*
X138929448Y-161357778D01*
G75*
G02*
X139985673Y-160952331I730836J-325389D01*
G01*
X139985673Y-160952331D01*
G75*
G02*
X140391120Y-162008556I-325389J-730836D01*
G01*
G37*
G36*
X147677726Y-164377053D02*
G01*
X147026947Y-165838726D01*
X145565274Y-165187947D01*
X146216053Y-163726274D01*
X147677726Y-164377053D01*
G37*
%TD*%
%TO.C,D19*%
G36*
G01*
X148138120Y-144546056D02*
X148138120Y-144546056D01*
G75*
G02*
X147081895Y-144951503I-730836J325389D01*
G01*
X147081895Y-144951503D01*
G75*
G02*
X146676448Y-143895278I325389J730836D01*
G01*
X146676448Y-143895278D01*
G75*
G02*
X147732673Y-143489831I730836J-325389D01*
G01*
X147732673Y-143489831D01*
G75*
G02*
X148138120Y-144546056I-325389J-730836D01*
G01*
G37*
G36*
X155424726Y-146914553D02*
G01*
X154773947Y-148376226D01*
X153312274Y-147725447D01*
X153963053Y-146263774D01*
X155424726Y-146914553D01*
G37*
%TD*%
%TO.C,D18*%
G36*
G01*
X155885120Y-127147056D02*
X155885120Y-127147056D01*
G75*
G02*
X154828895Y-127552503I-730836J325389D01*
G01*
X154828895Y-127552503D01*
G75*
G02*
X154423448Y-126496278I325389J730836D01*
G01*
X154423448Y-126496278D01*
G75*
G02*
X155479673Y-126090831I730836J-325389D01*
G01*
X155479673Y-126090831D01*
G75*
G02*
X155885120Y-127147056I-325389J-730836D01*
G01*
G37*
G36*
X163171726Y-129515553D02*
G01*
X162520947Y-130977226D01*
X161059274Y-130326447D01*
X161710053Y-128864774D01*
X163171726Y-129515553D01*
G37*
%TD*%
%TO.C,D16*%
G36*
G01*
X124897120Y-149880056D02*
X124897120Y-149880056D01*
G75*
G02*
X123840895Y-150285503I-730836J325389D01*
G01*
X123840895Y-150285503D01*
G75*
G02*
X123435448Y-149229278I325389J730836D01*
G01*
X123435448Y-149229278D01*
G75*
G02*
X124491673Y-148823831I730836J-325389D01*
G01*
X124491673Y-148823831D01*
G75*
G02*
X124897120Y-149880056I-325389J-730836D01*
G01*
G37*
G36*
X132183726Y-152248553D02*
G01*
X131532947Y-153710226D01*
X130071274Y-153059447D01*
X130722053Y-151597774D01*
X132183726Y-152248553D01*
G37*
%TD*%
%TO.C,D15*%
G36*
G01*
X132644120Y-132544556D02*
X132644120Y-132544556D01*
G75*
G02*
X131587895Y-132950003I-730836J325389D01*
G01*
X131587895Y-132950003D01*
G75*
G02*
X131182448Y-131893778I325389J730836D01*
G01*
X131182448Y-131893778D01*
G75*
G02*
X132238673Y-131488331I730836J-325389D01*
G01*
X132238673Y-131488331D01*
G75*
G02*
X132644120Y-132544556I-325389J-730836D01*
G01*
G37*
G36*
X139930726Y-134913053D02*
G01*
X139279947Y-136374726D01*
X137818274Y-135723947D01*
X138469053Y-134262274D01*
X139930726Y-134913053D01*
G37*
%TD*%
%TO.C,D14*%
G36*
G01*
X140327620Y-115018556D02*
X140327620Y-115018556D01*
G75*
G02*
X139271395Y-115424003I-730836J325389D01*
G01*
X139271395Y-115424003D01*
G75*
G02*
X138865948Y-114367778I325389J730836D01*
G01*
X138865948Y-114367778D01*
G75*
G02*
X139922173Y-113962331I730836J-325389D01*
G01*
X139922173Y-113962331D01*
G75*
G02*
X140327620Y-115018556I-325389J-730836D01*
G01*
G37*
G36*
X147614226Y-117387053D02*
G01*
X146963447Y-118848726D01*
X145501774Y-118197947D01*
X146152553Y-116736274D01*
X147614226Y-117387053D01*
G37*
%TD*%
%TO.C,D12*%
G36*
G01*
X105593120Y-146451056D02*
X105593120Y-146451056D01*
G75*
G02*
X104536895Y-146856503I-730836J325389D01*
G01*
X104536895Y-146856503D01*
G75*
G02*
X104131448Y-145800278I325389J730836D01*
G01*
X104131448Y-145800278D01*
G75*
G02*
X105187673Y-145394831I730836J-325389D01*
G01*
X105187673Y-145394831D01*
G75*
G02*
X105593120Y-146451056I-325389J-730836D01*
G01*
G37*
G36*
X112879726Y-148819553D02*
G01*
X112228947Y-150281226D01*
X110767274Y-149630447D01*
X111418053Y-148168774D01*
X112879726Y-148819553D01*
G37*
%TD*%
%TO.C,D10*%
G36*
G01*
X121087120Y-111716556D02*
X121087120Y-111716556D01*
G75*
G02*
X120030895Y-112122003I-730836J325389D01*
G01*
X120030895Y-112122003D01*
G75*
G02*
X119625448Y-111065778I325389J730836D01*
G01*
X119625448Y-111065778D01*
G75*
G02*
X120681673Y-110660331I730836J-325389D01*
G01*
X120681673Y-110660331D01*
G75*
G02*
X121087120Y-111716556I-325389J-730836D01*
G01*
G37*
G36*
X128373726Y-114085053D02*
G01*
X127722947Y-115546726D01*
X126261274Y-114895947D01*
X126912053Y-113434274D01*
X128373726Y-114085053D01*
G37*
%TD*%
%TO.C,D8*%
G36*
G01*
X86225620Y-143085556D02*
X86225620Y-143085556D01*
G75*
G02*
X85169395Y-143491003I-730836J325389D01*
G01*
X85169395Y-143491003D01*
G75*
G02*
X84763948Y-142434778I325389J730836D01*
G01*
X84763948Y-142434778D01*
G75*
G02*
X85820173Y-142029331I730836J-325389D01*
G01*
X85820173Y-142029331D01*
G75*
G02*
X86225620Y-143085556I-325389J-730836D01*
G01*
G37*
G36*
X93512226Y-145454053D02*
G01*
X92861447Y-146915726D01*
X91399774Y-146264947D01*
X92050553Y-144803274D01*
X93512226Y-145454053D01*
G37*
%TD*%
%TO.C,D7*%
G36*
G01*
X93947220Y-125686556D02*
X93947220Y-125686556D01*
G75*
G02*
X92890995Y-126092003I-730836J325389D01*
G01*
X92890995Y-126092003D01*
G75*
G02*
X92485548Y-125035778I325389J730836D01*
G01*
X92485548Y-125035778D01*
G75*
G02*
X93541773Y-124630331I730836J-325389D01*
G01*
X93541773Y-124630331D01*
G75*
G02*
X93947220Y-125686556I-325389J-730836D01*
G01*
G37*
G36*
X101233826Y-128055053D02*
G01*
X100583047Y-129516726D01*
X99121374Y-128865947D01*
X99772153Y-127404274D01*
X101233826Y-128055053D01*
G37*
%TD*%
%TO.C,D6*%
G36*
G01*
X101719620Y-108262156D02*
X101719620Y-108262156D01*
G75*
G02*
X100663395Y-108667603I-730836J325389D01*
G01*
X100663395Y-108667603D01*
G75*
G02*
X100257948Y-107611378I325389J730836D01*
G01*
X100257948Y-107611378D01*
G75*
G02*
X101314173Y-107205931I730836J-325389D01*
G01*
X101314173Y-107205931D01*
G75*
G02*
X101719620Y-108262156I-325389J-730836D01*
G01*
G37*
G36*
X109006226Y-110630653D02*
G01*
X108355447Y-112092326D01*
X106893774Y-111441547D01*
X107544553Y-109979874D01*
X109006226Y-110630653D01*
G37*
%TD*%
%TO.C,D4*%
G36*
G01*
X64953120Y-144038056D02*
X64953120Y-144038056D01*
G75*
G02*
X63896895Y-144443503I-730836J325389D01*
G01*
X63896895Y-144443503D01*
G75*
G02*
X63491448Y-143387278I325389J730836D01*
G01*
X63491448Y-143387278D01*
G75*
G02*
X64547673Y-142981831I730836J-325389D01*
G01*
X64547673Y-142981831D01*
G75*
G02*
X64953120Y-144038056I-325389J-730836D01*
G01*
G37*
G36*
X72239726Y-146406553D02*
G01*
X71588947Y-147868226D01*
X70127274Y-147217447D01*
X70778053Y-145755774D01*
X72239726Y-146406553D01*
G37*
%TD*%
%TO.C,D3*%
G36*
G01*
X72700120Y-126702556D02*
X72700120Y-126702556D01*
G75*
G02*
X71643895Y-127108003I-730836J325389D01*
G01*
X71643895Y-127108003D01*
G75*
G02*
X71238448Y-126051778I325389J730836D01*
G01*
X71238448Y-126051778D01*
G75*
G02*
X72294673Y-125646331I730836J-325389D01*
G01*
X72294673Y-125646331D01*
G75*
G02*
X72700120Y-126702556I-325389J-730836D01*
G01*
G37*
G36*
X79986726Y-129071053D02*
G01*
X79335947Y-130532726D01*
X77874274Y-129881947D01*
X78525053Y-128420274D01*
X79986726Y-129071053D01*
G37*
%TD*%
%TO.C,D2*%
G36*
G01*
X80447120Y-109240056D02*
X80447120Y-109240056D01*
G75*
G02*
X79390895Y-109645503I-730836J325389D01*
G01*
X79390895Y-109645503D01*
G75*
G02*
X78985448Y-108589278I325389J730836D01*
G01*
X78985448Y-108589278D01*
G75*
G02*
X80041673Y-108183831I730836J-325389D01*
G01*
X80041673Y-108183831D01*
G75*
G02*
X80447120Y-109240056I-325389J-730836D01*
G01*
G37*
G36*
X87733726Y-111608553D02*
G01*
X87082947Y-113070226D01*
X85621274Y-112419447D01*
X86272053Y-110957774D01*
X87733726Y-111608553D01*
G37*
%TD*%
M02*
