M48
; DRILL file {KiCad 6.0.4-1.fc35} date Fri 29 Apr 2022 05:40:51 AM CEST
; FORMAT={-:-/ absolute / inch / decimal}
; #@! TF.CreationDate,2022-04-29T05:40:51+02:00
; #@! TF.GenerationSoftware,Kicad,Pcbnew,6.0.4-1.fc35
; #@! TF.FileFunction,Plated,1,2,PTH
FMAT,2
INCH
; #@! TA.AperFunction,Plated,PTH,ComponentDrill
T1C0.0315
; #@! TA.AperFunction,Plated,PTH,ComponentDrill
T2C0.0433
; #@! TA.AperFunction,Plated,PTH,ComponentDrill
T3C0.0591
%
G90
G05
T1
X2.5284Y-5.658
X2.8025Y-5.78
X2.8334Y-4.9755
X3.1075Y-5.0975
X3.1384Y-4.288
X3.3659Y-5.6205
X3.4125Y-4.41
X3.4399Y-3.6015
X3.64Y-5.7425
X3.6699Y-4.9355
X3.714Y-3.7235
X3.944Y-5.0575
X3.9759Y-4.2495
X4.1284Y-5.753
X4.25Y-4.3715
X4.2809Y-3.563
X4.4025Y-5.875
X4.4309Y-5.068
X4.555Y-3.685
X4.705Y-5.19
X4.7384Y-4.3855
X4.8884Y-5.888
X5.0125Y-4.5075
X5.0409Y-3.698
X5.1625Y-6.01
X5.1934Y-5.2055
X5.315Y-3.82
X5.4675Y-5.3275
X5.4959Y-4.5155
X5.4984Y-6.3655
X5.77Y-4.6375
X5.7725Y-6.4875
X5.8034Y-5.678
X5.8059Y-3.833
X6.0775Y-5.8
X6.08Y-3.955
X6.1059Y-6.8405
X6.1084Y-4.993
X6.38Y-6.9625
X6.3825Y-5.115
X6.4109Y-6.158
X6.4209Y-4.313
X6.685Y-6.28
X6.695Y-4.435
X6.7159Y-5.4705
X6.99Y-5.5925
X7.0234Y-4.783
X7.2975Y-4.905
X7.575Y-3.645
X7.575Y-3.745
X7.575Y-3.845
X7.575Y-3.945
X7.575Y-4.045
X7.575Y-4.145
X7.575Y-4.245
X7.575Y-4.345
X7.575Y-4.445
X7.575Y-4.545
X7.575Y-4.645
X7.575Y-4.745
X8.175Y-3.645
X8.175Y-3.745
X8.175Y-3.845
X8.175Y-3.945
X8.175Y-4.045
X8.175Y-4.145
X8.175Y-4.245
X8.175Y-4.345
X8.175Y-4.445
X8.175Y-4.545
X8.175Y-4.645
X8.175Y-4.745
X8.4542Y-4.905
X8.7283Y-4.783
X8.7592Y-5.5925
X9.0333Y-5.4705
X9.0625Y-6.2775
X9.0666Y-4.43
X9.3366Y-6.1555
X9.3407Y-4.308
X9.3667Y-6.9625
X9.3725Y-5.1183
X9.6408Y-6.8405
X9.6466Y-4.9962
X9.6725Y-3.9549
X9.6725Y-5.8
X9.9466Y-3.8329
X9.9466Y-5.678
X9.975Y-6.49
X9.9775Y-4.6419
X10.2491Y-6.368
X10.2516Y-4.5199
X10.28Y-5.3269
X10.4375Y-3.821
X10.5541Y-5.2049
X10.5922Y-6.0075
X10.7116Y-3.699
X10.7375Y-4.505
X10.8662Y-5.8855
X11.0116Y-4.383
X11.0449Y-5.1925
X11.1925Y-3.685
X11.319Y-5.0705
X11.3475Y-5.8775
X11.4666Y-3.563
X11.5025Y-4.37
X11.6216Y-5.7555
X11.7766Y-4.248
X11.8025Y-5.0575
X12.03Y-3.7225
X12.0766Y-4.9355
X12.1119Y-5.7425
X12.3041Y-3.6005
X12.3375Y-4.4116
X12.3859Y-5.6205
X12.6116Y-4.2895
X12.645Y-5.0975
X12.9191Y-4.9755
X12.9475Y-5.7825
X13.2216Y-5.6605
T2
X7.7441Y-4.8628
X7.7441Y-5.04
X8.0Y-4.8628
X8.0Y-5.04
T3
X2.4149Y-5.9108
X2.684Y-5.9211
X2.72Y-5.2257
X2.9891Y-5.236
X3.0252Y-4.5407
X3.2525Y-5.8734
X3.2942Y-4.551
X3.3303Y-3.8556
X3.5216Y-5.8837
X3.5576Y-5.1873
X3.5993Y-3.866
X3.8267Y-5.1977
X3.8628Y-4.5023
X4.0143Y-6.0072
X4.1318Y-4.5126
X4.1679Y-3.8172
X4.2834Y-6.0175
X4.3194Y-5.3212
X4.4369Y-3.8276
X4.5885Y-5.3315
X4.6246Y-4.6361
X4.6805Y-6.4746
X4.6909Y-6.2055
X4.8936Y-4.6465
X4.9297Y-3.9511
X5.0803Y-5.4557
X5.1987Y-3.9614
X5.214Y-7.1232
X5.2243Y-6.8542
X5.3493Y-5.4661
X5.3854Y-4.771
X5.6544Y-4.7813
X5.6895Y-5.9324
X5.6915Y-4.085
X5.7849Y-7.6852
X5.7952Y-7.4162
X5.9586Y-5.9427
X5.9606Y-4.0953
X5.9946Y-5.2464
X6.2637Y-5.2567
X6.2978Y-6.4085
X6.2998Y-4.5613
X6.5669Y-6.4188
X6.5688Y-4.5717
X6.6029Y-5.7237
X6.872Y-5.7341
X6.908Y-5.0377
X7.1771Y-5.0481
X8.5679Y-5.1597
X8.7556Y-4.9667
X8.873Y-5.8448
X9.0607Y-5.6517
X9.1771Y-4.6833
X9.1781Y-6.5298
X9.3648Y-4.4903
X9.3658Y-6.3368
X9.4832Y-5.3684
X9.6709Y-5.1753
X9.7854Y-4.207
X9.7873Y-6.0534
X9.844Y-7.4099
X9.9731Y-4.0139
X9.9751Y-5.8604
X10.0371Y-7.5976
X10.0905Y-4.892
X10.2782Y-4.699
X10.3956Y-5.577
X10.4149Y-6.8479
X10.5478Y-4.0739
X10.5833Y-5.384
X10.6079Y-7.0356
X10.7355Y-3.8809
X10.8519Y-4.758
X10.9464Y-6.2002
X11.0396Y-4.5649
X11.1394Y-6.3879
X11.157Y-5.443
X11.3086Y-3.9391
X11.3447Y-5.25
X11.4621Y-6.128
X11.4963Y-3.746
X11.6141Y-4.6243
X11.6499Y-5.935
X11.8018Y-4.4313
X11.9183Y-5.3103
X12.106Y-5.1173
X12.1466Y-3.9767
X12.2234Y-5.9944
X12.3343Y-3.7836
X12.4111Y-5.8013
X12.4517Y-4.6617
X12.6394Y-4.4687
X12.7568Y-5.3477
X12.9445Y-5.1547
X13.061Y-6.0318
X13.2487Y-5.8387
T0
M30
