%TF.GenerationSoftware,KiCad,Pcbnew,5.1.10-1.fc33*%
%TF.CreationDate,2021-08-02T15:59:08+02:00*%
%TF.ProjectId,lineata,6c696e65-6174-4612-9e6b-696361645f70,0.1*%
%TF.SameCoordinates,Original*%
%TF.FileFunction,Legend,Bot*%
%TF.FilePolarity,Positive*%
%FSLAX46Y46*%
G04 Gerber Fmt 4.6, Leading zero omitted, Abs format (unit mm)*
G04 Created by KiCad (PCBNEW 5.1.10-1.fc33) date 2021-08-02 15:59:08*
%MOMM*%
%LPD*%
G01*
G04 APERTURE LIST*
%ADD10C,0.100000*%
%ADD11C,0.300000*%
G04 APERTURE END LIST*
D10*
X202517500Y-107731690D02*
X202455000Y-107231690D01*
X202264523Y-107231690D01*
X202219880Y-107255500D01*
X202199047Y-107279309D01*
X202181190Y-107326928D01*
X202190119Y-107398357D01*
X202219880Y-107445976D01*
X202246666Y-107469785D01*
X202297261Y-107493595D01*
X202487738Y-107493595D01*
X202017500Y-107731690D02*
X201975833Y-107398357D01*
X201987738Y-107493595D02*
X201957976Y-107445976D01*
X201931190Y-107422166D01*
X201880595Y-107398357D01*
X201832976Y-107398357D01*
X201636547Y-107731690D02*
X201681190Y-107707880D01*
X201702023Y-107684071D01*
X201719880Y-107636452D01*
X201702023Y-107493595D01*
X201672261Y-107445976D01*
X201645476Y-107422166D01*
X201594880Y-107398357D01*
X201523452Y-107398357D01*
X201478809Y-107422166D01*
X201457976Y-107445976D01*
X201440119Y-107493595D01*
X201457976Y-107636452D01*
X201487738Y-107684071D01*
X201514523Y-107707880D01*
X201565119Y-107731690D01*
X201636547Y-107731690D01*
X201285357Y-107398357D02*
X201094880Y-107398357D01*
X201193095Y-107231690D02*
X201246666Y-107660261D01*
X201228809Y-107707880D01*
X201184166Y-107731690D01*
X201136547Y-107731690D01*
X200898452Y-107731690D02*
X200943095Y-107707880D01*
X200963928Y-107684071D01*
X200981785Y-107636452D01*
X200963928Y-107493595D01*
X200934166Y-107445976D01*
X200907380Y-107422166D01*
X200856785Y-107398357D01*
X200785357Y-107398357D01*
X200740714Y-107422166D01*
X200719880Y-107445976D01*
X200702023Y-107493595D01*
X200719880Y-107636452D01*
X200749642Y-107684071D01*
X200776428Y-107707880D01*
X200827023Y-107731690D01*
X200898452Y-107731690D01*
X200547261Y-107398357D02*
X200356785Y-107398357D01*
X200455000Y-107231690D02*
X200508571Y-107660261D01*
X200490714Y-107707880D01*
X200446071Y-107731690D01*
X200398452Y-107731690D01*
X200237738Y-107398357D02*
X200160357Y-107731690D01*
X199999642Y-107398357D02*
X200160357Y-107731690D01*
X200222857Y-107850738D01*
X200249642Y-107874547D01*
X200300238Y-107898357D01*
X199809166Y-107398357D02*
X199871666Y-107898357D01*
X199812142Y-107422166D02*
X199761547Y-107398357D01*
X199666309Y-107398357D01*
X199621666Y-107422166D01*
X199600833Y-107445976D01*
X199582976Y-107493595D01*
X199600833Y-107636452D01*
X199630595Y-107684071D01*
X199657380Y-107707880D01*
X199707976Y-107731690D01*
X199803214Y-107731690D01*
X199847857Y-107707880D01*
X199205000Y-107707880D02*
X199255595Y-107731690D01*
X199350833Y-107731690D01*
X199395476Y-107707880D01*
X199413333Y-107660261D01*
X199389523Y-107469785D01*
X199359761Y-107422166D01*
X199309166Y-107398357D01*
X199213928Y-107398357D01*
X199169285Y-107422166D01*
X199151428Y-107469785D01*
X199157380Y-107517404D01*
X199401428Y-107565023D01*
X198431190Y-107231690D02*
X198383571Y-107231690D01*
X198338928Y-107255500D01*
X198318095Y-107279309D01*
X198300238Y-107326928D01*
X198288333Y-107422166D01*
X198303214Y-107541214D01*
X198338928Y-107636452D01*
X198368690Y-107684071D01*
X198395476Y-107707880D01*
X198446071Y-107731690D01*
X198493690Y-107731690D01*
X198538333Y-107707880D01*
X198559166Y-107684071D01*
X198577023Y-107636452D01*
X198588928Y-107541214D01*
X198574047Y-107422166D01*
X198538333Y-107326928D01*
X198508571Y-107279309D01*
X198481785Y-107255500D01*
X198431190Y-107231690D01*
X198106785Y-107684071D02*
X198085952Y-107707880D01*
X198112738Y-107731690D01*
X198133571Y-107707880D01*
X198106785Y-107684071D01*
X198112738Y-107731690D01*
X197612738Y-107731690D02*
X197898452Y-107731690D01*
X197755595Y-107731690D02*
X197693095Y-107231690D01*
X197749642Y-107303119D01*
X197803214Y-107350738D01*
X197853809Y-107374547D01*
D11*
X202990571Y-106977571D02*
X203704857Y-106977571D01*
X203517357Y-105477571D01*
X202490571Y-106977571D02*
X202365571Y-105977571D01*
X202303071Y-105477571D02*
X202383428Y-105549000D01*
X202320928Y-105620428D01*
X202240571Y-105549000D01*
X202303071Y-105477571D01*
X202320928Y-105620428D01*
X201651285Y-105977571D02*
X201776285Y-106977571D01*
X201669142Y-106120428D02*
X201588785Y-106049000D01*
X201437000Y-105977571D01*
X201222714Y-105977571D01*
X201088785Y-106049000D01*
X201035214Y-106191857D01*
X201133428Y-106977571D01*
X199838785Y-106906142D02*
X199990571Y-106977571D01*
X200276285Y-106977571D01*
X200410214Y-106906142D01*
X200463785Y-106763285D01*
X200392357Y-106191857D01*
X200303071Y-106049000D01*
X200151285Y-105977571D01*
X199865571Y-105977571D01*
X199731642Y-106049000D01*
X199678071Y-106191857D01*
X199695928Y-106334714D01*
X200428071Y-106477571D01*
X198490571Y-106977571D02*
X198392357Y-106191857D01*
X198445928Y-106049000D01*
X198579857Y-105977571D01*
X198865571Y-105977571D01*
X199017357Y-106049000D01*
X198481642Y-106906142D02*
X198633428Y-106977571D01*
X198990571Y-106977571D01*
X199124500Y-106906142D01*
X199178071Y-106763285D01*
X199160214Y-106620428D01*
X199070928Y-106477571D01*
X198919142Y-106406142D01*
X198562000Y-106406142D01*
X198410214Y-106334714D01*
X197865571Y-105977571D02*
X197294142Y-105977571D01*
X197588785Y-105477571D02*
X197749500Y-106763285D01*
X197695928Y-106906142D01*
X197562000Y-106977571D01*
X197419142Y-106977571D01*
X196276285Y-106977571D02*
X196178071Y-106191857D01*
X196231642Y-106049000D01*
X196365571Y-105977571D01*
X196651285Y-105977571D01*
X196803071Y-106049000D01*
X196267357Y-106906142D02*
X196419142Y-106977571D01*
X196776285Y-106977571D01*
X196910214Y-106906142D01*
X196963785Y-106763285D01*
X196945928Y-106620428D01*
X196856642Y-106477571D01*
X196704857Y-106406142D01*
X196347714Y-106406142D01*
X196195928Y-106334714D01*
M02*
