%TF.GenerationSoftware,KiCad,Pcbnew,6.0.4-1.fc35*%
%TF.CreationDate,2022-04-29T05:39:44+02:00*%
%TF.ProjectId,lineata,6c696e65-6174-4612-9e6b-696361645f70,0.1*%
%TF.SameCoordinates,Original*%
%TF.FileFunction,Legend,Top*%
%TF.FilePolarity,Positive*%
%FSLAX46Y46*%
G04 Gerber Fmt 4.6, Leading zero omitted, Abs format (unit mm)*
G04 Created by KiCad (PCBNEW 6.0.4-1.fc35) date 2022-04-29 05:39:44*
%MOMM*%
%LPD*%
G01*
G04 APERTURE LIST*
G04 Aperture macros list*
%AMHorizOval*
0 Thick line with rounded ends*
0 $1 width*
0 $2 $3 position (X,Y) of the first rounded end (center of the circle)*
0 $4 $5 position (X,Y) of the second rounded end (center of the circle)*
0 Add line between two ends*
20,1,$1,$2,$3,$4,$5,0*
0 Add two circle primitives to create the rounded ends*
1,1,$1,$2,$3*
1,1,$1,$4,$5*%
%AMRotRect*
0 Rectangle, with rotation*
0 The origin of the aperture is its center*
0 $1 length*
0 $2 width*
0 $3 Rotation angle, in degrees counterclockwise*
0 Add horizontal line*
21,1,$1,$2,0,0,$3*%
G04 Aperture macros list end*
%ADD10C,0.100000*%
%ADD11C,0.300000*%
%ADD12C,0.120000*%
%ADD13RotRect,1.600000X1.600000X156.000000*%
%ADD14HorizOval,1.600000X0.000000X0.000000X0.000000X0.000000X0*%
%ADD15RotRect,1.600000X1.600000X24.000000*%
%ADD16HorizOval,1.600000X0.000000X0.000000X0.000000X0.000000X0*%
%ADD17C,1.700000*%
%ADD18C,4.000000*%
%ADD19C,2.200000*%
%ADD20R,1.600000X1.600000*%
%ADD21O,1.600000X1.600000*%
%ADD22C,3.050000*%
%ADD23C,2.000000*%
G04 APERTURE END LIST*
D10*
X197600687Y-107731690D02*
X197663187Y-107231690D01*
X197853663Y-107231690D01*
X197898306Y-107255500D01*
X197919139Y-107279309D01*
X197936997Y-107326928D01*
X197928068Y-107398357D01*
X197898306Y-107445976D01*
X197871520Y-107469785D01*
X197820925Y-107493595D01*
X197630449Y-107493595D01*
X198100687Y-107731690D02*
X198142354Y-107398357D01*
X198130449Y-107493595D02*
X198160211Y-107445976D01*
X198186997Y-107422166D01*
X198237592Y-107398357D01*
X198285211Y-107398357D01*
X198481639Y-107731690D02*
X198436997Y-107707880D01*
X198416163Y-107684071D01*
X198398306Y-107636452D01*
X198416163Y-107493595D01*
X198445925Y-107445976D01*
X198472711Y-107422166D01*
X198523306Y-107398357D01*
X198594735Y-107398357D01*
X198639377Y-107422166D01*
X198660211Y-107445976D01*
X198678068Y-107493595D01*
X198660211Y-107636452D01*
X198630449Y-107684071D01*
X198603663Y-107707880D01*
X198553068Y-107731690D01*
X198481639Y-107731690D01*
X198832830Y-107398357D02*
X199023306Y-107398357D01*
X198925092Y-107231690D02*
X198871520Y-107660261D01*
X198889377Y-107707880D01*
X198934020Y-107731690D01*
X198981639Y-107731690D01*
X199219735Y-107731690D02*
X199175092Y-107707880D01*
X199154258Y-107684071D01*
X199136401Y-107636452D01*
X199154258Y-107493595D01*
X199184020Y-107445976D01*
X199210806Y-107422166D01*
X199261401Y-107398357D01*
X199332830Y-107398357D01*
X199377473Y-107422166D01*
X199398306Y-107445976D01*
X199416163Y-107493595D01*
X199398306Y-107636452D01*
X199368544Y-107684071D01*
X199341758Y-107707880D01*
X199291163Y-107731690D01*
X199219735Y-107731690D01*
X199570925Y-107398357D02*
X199761401Y-107398357D01*
X199663187Y-107231690D02*
X199609616Y-107660261D01*
X199627473Y-107707880D01*
X199672116Y-107731690D01*
X199719735Y-107731690D01*
X199880449Y-107398357D02*
X199957830Y-107731690D01*
X200118544Y-107398357D02*
X199957830Y-107731690D01*
X199895330Y-107850738D01*
X199868544Y-107874547D01*
X199817949Y-107898357D01*
X200309020Y-107398357D02*
X200246520Y-107898357D01*
X200306044Y-107422166D02*
X200356639Y-107398357D01*
X200451877Y-107398357D01*
X200496520Y-107422166D01*
X200517354Y-107445976D01*
X200535211Y-107493595D01*
X200517354Y-107636452D01*
X200487592Y-107684071D01*
X200460806Y-107707880D01*
X200410211Y-107731690D01*
X200314973Y-107731690D01*
X200270330Y-107707880D01*
X200913187Y-107707880D02*
X200862592Y-107731690D01*
X200767354Y-107731690D01*
X200722711Y-107707880D01*
X200704854Y-107660261D01*
X200728663Y-107469785D01*
X200758425Y-107422166D01*
X200809020Y-107398357D01*
X200904258Y-107398357D01*
X200948901Y-107422166D01*
X200966758Y-107469785D01*
X200960806Y-107517404D01*
X200716758Y-107565023D01*
X201686997Y-107231690D02*
X201734616Y-107231690D01*
X201779258Y-107255500D01*
X201800092Y-107279309D01*
X201817949Y-107326928D01*
X201829854Y-107422166D01*
X201814973Y-107541214D01*
X201779258Y-107636452D01*
X201749497Y-107684071D01*
X201722711Y-107707880D01*
X201672116Y-107731690D01*
X201624497Y-107731690D01*
X201579854Y-107707880D01*
X201559020Y-107684071D01*
X201541163Y-107636452D01*
X201529258Y-107541214D01*
X201544139Y-107422166D01*
X201579854Y-107326928D01*
X201609616Y-107279309D01*
X201636401Y-107255500D01*
X201686997Y-107231690D01*
X202011401Y-107684071D02*
X202032235Y-107707880D01*
X202005449Y-107731690D01*
X201984616Y-107707880D01*
X202011401Y-107684071D01*
X202005449Y-107731690D01*
X202505449Y-107731690D02*
X202219735Y-107731690D01*
X202362592Y-107731690D02*
X202425092Y-107231690D01*
X202368544Y-107303119D01*
X202314973Y-107350738D01*
X202264377Y-107374547D01*
D11*
X197009991Y-106977571D02*
X196295705Y-106977571D01*
X196483205Y-105477571D01*
X197509991Y-106977571D02*
X197634991Y-105977571D01*
X197697491Y-105477571D02*
X197617133Y-105549000D01*
X197679633Y-105620428D01*
X197759991Y-105549000D01*
X197697491Y-105477571D01*
X197679633Y-105620428D01*
X198349276Y-105977571D02*
X198224276Y-106977571D01*
X198331419Y-106120428D02*
X198411776Y-106049000D01*
X198563562Y-105977571D01*
X198777848Y-105977571D01*
X198911776Y-106049000D01*
X198965348Y-106191857D01*
X198867133Y-106977571D01*
X200161776Y-106906142D02*
X200009991Y-106977571D01*
X199724276Y-106977571D01*
X199590348Y-106906142D01*
X199536776Y-106763285D01*
X199608205Y-106191857D01*
X199697491Y-106049000D01*
X199849276Y-105977571D01*
X200134991Y-105977571D01*
X200268919Y-106049000D01*
X200322491Y-106191857D01*
X200304633Y-106334714D01*
X199572491Y-106477571D01*
X201509991Y-106977571D02*
X201608205Y-106191857D01*
X201554633Y-106049000D01*
X201420705Y-105977571D01*
X201134991Y-105977571D01*
X200983205Y-106049000D01*
X201518919Y-106906142D02*
X201367133Y-106977571D01*
X201009991Y-106977571D01*
X200876062Y-106906142D01*
X200822491Y-106763285D01*
X200840348Y-106620428D01*
X200929633Y-106477571D01*
X201081419Y-106406142D01*
X201438562Y-106406142D01*
X201590348Y-106334714D01*
X202134991Y-105977571D02*
X202706419Y-105977571D01*
X202411776Y-105477571D02*
X202251062Y-106763285D01*
X202304633Y-106906142D01*
X202438562Y-106977571D01*
X202581419Y-106977571D01*
X203724276Y-106977571D02*
X203822491Y-106191857D01*
X203768919Y-106049000D01*
X203634991Y-105977571D01*
X203349276Y-105977571D01*
X203197491Y-106049000D01*
X203733205Y-106906142D02*
X203581419Y-106977571D01*
X203224276Y-106977571D01*
X203090348Y-106906142D01*
X203036776Y-106763285D01*
X203054633Y-106620428D01*
X203143919Y-106477571D01*
X203295705Y-106406142D01*
X203652848Y-106406142D01*
X203804633Y-106334714D01*
D12*
%TO.C,D2*%
X81715720Y-108578881D02*
X80804630Y-110625223D01*
X84678063Y-112349786D02*
X85589153Y-110303444D01*
X84020310Y-112056936D02*
X84931400Y-110010594D01*
X85727413Y-111590994D02*
X85133608Y-111326615D01*
X84129936Y-112105744D02*
X85041026Y-110059402D01*
X80666371Y-109337673D02*
X81260175Y-109602052D01*
X83910685Y-112008127D02*
X84821775Y-109961785D01*
X85589153Y-110303444D02*
X81715720Y-108578881D01*
X80804630Y-110625223D02*
X84678063Y-112349786D01*
%TO.C,D3*%
X76382936Y-129568244D02*
X77294026Y-127521902D01*
X76273310Y-129519436D02*
X77184400Y-127473094D01*
X76931063Y-129812286D02*
X77842153Y-127765944D01*
X72919371Y-126800173D02*
X73513175Y-127064552D01*
X77980413Y-129053494D02*
X77386608Y-128789115D01*
X77842153Y-127765944D02*
X73968720Y-126041381D01*
X76163685Y-129470627D02*
X77074775Y-127424285D01*
X73968720Y-126041381D02*
X73057630Y-128087723D01*
X73057630Y-128087723D02*
X76931063Y-129812286D01*
%TO.C,D4*%
X70233413Y-146388994D02*
X69639608Y-146124615D01*
X65172371Y-144135673D02*
X65766175Y-144400052D01*
X70095153Y-145101444D02*
X66221720Y-143376881D01*
X68635936Y-146903744D02*
X69547026Y-144857402D01*
X68526310Y-146854936D02*
X69437400Y-144808594D01*
X69184063Y-147147786D02*
X70095153Y-145101444D01*
X68416685Y-146806127D02*
X69327775Y-144759785D01*
X66221720Y-143376881D02*
X65310630Y-145423223D01*
X65310630Y-145423223D02*
X69184063Y-147147786D01*
%TO.C,D5*%
X113697563Y-93934786D02*
X114608653Y-91888444D01*
X109685871Y-90922673D02*
X110279675Y-91187052D01*
X113039810Y-93641936D02*
X113950900Y-91595594D01*
X112930185Y-93593127D02*
X113841275Y-91546785D01*
X113149436Y-93690744D02*
X114060526Y-91644402D01*
X110735220Y-90163881D02*
X109824130Y-92210223D01*
X109824130Y-92210223D02*
X113697563Y-93934786D01*
X114608653Y-91888444D02*
X110735220Y-90163881D01*
X114746913Y-93175994D02*
X114153108Y-92911615D01*
%TO.C,D6*%
X105183185Y-111030227D02*
X106094275Y-108983885D01*
X101938871Y-108359773D02*
X102532675Y-108624152D01*
X106861653Y-109325544D02*
X102988220Y-107600981D01*
X102077130Y-109647323D02*
X105950563Y-111371886D01*
X105950563Y-111371886D02*
X106861653Y-109325544D01*
X106999913Y-110613094D02*
X106406108Y-110348715D01*
X105292810Y-111079036D02*
X106203900Y-109032694D01*
X102988220Y-107600981D02*
X102077130Y-109647323D01*
X105402436Y-111127844D02*
X106313526Y-109081502D01*
%TO.C,D7*%
X97410785Y-128454627D02*
X98321875Y-126408285D01*
X94166471Y-125784173D02*
X94760275Y-126048552D01*
X99089253Y-126749944D02*
X95215820Y-125025381D01*
X94304730Y-127071723D02*
X98178163Y-128796286D01*
X98178163Y-128796286D02*
X99089253Y-126749944D01*
X99227513Y-128037494D02*
X98633708Y-127773115D01*
X95215820Y-125025381D02*
X94304730Y-127071723D01*
X97630036Y-128552244D02*
X98541126Y-126505902D01*
X97520410Y-128503436D02*
X98431500Y-126457094D01*
%TO.C,D8*%
X86444871Y-143183173D02*
X87038675Y-143447552D01*
X89689185Y-145853627D02*
X90600275Y-143807285D01*
X91367653Y-144148944D02*
X87494220Y-142424381D01*
X89798810Y-145902436D02*
X90709900Y-143856094D01*
X87494220Y-142424381D02*
X86583130Y-144470723D01*
X86583130Y-144470723D02*
X90456563Y-146195286D01*
X89908436Y-145951244D02*
X90819526Y-143904902D01*
X90456563Y-146195286D02*
X91367653Y-144148944D01*
X91505913Y-145436494D02*
X90912108Y-145172115D01*
%TO.C,D9*%
X132343810Y-97070936D02*
X133254900Y-95024594D01*
X128989871Y-94351673D02*
X129583675Y-94616052D01*
X132234185Y-97022127D02*
X133145275Y-94975785D01*
X129128130Y-95639223D02*
X133001563Y-97363786D01*
X130039220Y-93592881D02*
X129128130Y-95639223D01*
X134050913Y-96604994D02*
X133457108Y-96340615D01*
X133912653Y-95317444D02*
X130039220Y-93592881D01*
X133001563Y-97363786D02*
X133912653Y-95317444D01*
X132453436Y-97119744D02*
X133364526Y-95073402D01*
%TO.C,D10*%
X126229153Y-112779944D02*
X122355720Y-111055381D01*
X126367413Y-114067494D02*
X125773608Y-113803115D01*
X121306371Y-111814173D02*
X121900175Y-112078552D01*
X124660310Y-114533436D02*
X125571400Y-112487094D01*
X124550685Y-114484627D02*
X125461775Y-112438285D01*
X124769936Y-114582244D02*
X125681026Y-112535902D01*
X125318063Y-114826286D02*
X126229153Y-112779944D01*
X121444630Y-113101723D02*
X125318063Y-114826286D01*
X122355720Y-111055381D02*
X121444630Y-113101723D01*
%TO.C,D12*%
X109275936Y-149316744D02*
X110187026Y-147270402D01*
X110873413Y-148801994D02*
X110279608Y-148537615D01*
X110735153Y-147514444D02*
X106861720Y-145789881D01*
X109166310Y-149267936D02*
X110077400Y-147221594D01*
X106861720Y-145789881D02*
X105950630Y-147836223D01*
X105812371Y-146548673D02*
X106406175Y-146813052D01*
X105950630Y-147836223D02*
X109824063Y-149560786D01*
X109824063Y-149560786D02*
X110735153Y-147514444D01*
X109056685Y-149219127D02*
X109967775Y-147172785D01*
%TO.C,D13*%
X153481913Y-100033994D02*
X152888108Y-99769615D01*
X153343653Y-98746444D02*
X149470220Y-97021881D01*
X151774810Y-100499936D02*
X152685900Y-98453594D01*
X148559130Y-99068223D02*
X152432563Y-100792786D01*
X149470220Y-97021881D02*
X148559130Y-99068223D01*
X151884436Y-100548744D02*
X152795526Y-98502402D01*
X148420871Y-97780673D02*
X149014675Y-98045052D01*
X151665185Y-100451127D02*
X152576275Y-98404785D01*
X152432563Y-100792786D02*
X153343653Y-98746444D01*
%TO.C,D14*%
X143791185Y-117786627D02*
X144702275Y-115740285D01*
X145469653Y-116081944D02*
X141596220Y-114357381D01*
X144558563Y-118128286D02*
X145469653Y-116081944D01*
X141596220Y-114357381D02*
X140685130Y-116403723D01*
X140685130Y-116403723D02*
X144558563Y-118128286D01*
X143900810Y-117835436D02*
X144811900Y-115789094D01*
X144010436Y-117884244D02*
X144921526Y-115837902D01*
X140546871Y-115116173D02*
X141140675Y-115380552D01*
X145607913Y-117369494D02*
X145014108Y-117105115D01*
%TO.C,D15*%
X136875063Y-135654286D02*
X137786153Y-133607944D01*
X136107685Y-135312627D02*
X137018775Y-133266285D01*
X137786153Y-133607944D02*
X133912720Y-131883381D01*
X136217310Y-135361436D02*
X137128400Y-133315094D01*
X133001630Y-133929723D02*
X136875063Y-135654286D01*
X133912720Y-131883381D02*
X133001630Y-133929723D01*
X136326936Y-135410244D02*
X137238026Y-133363902D01*
X137924413Y-134895494D02*
X137330608Y-134631115D01*
X132863371Y-132642173D02*
X133457175Y-132906552D01*
%TO.C,D16*%
X128470310Y-152696936D02*
X129381400Y-150650594D01*
X130039153Y-150943444D02*
X126165720Y-149218881D01*
X129128063Y-152989786D02*
X130039153Y-150943444D01*
X130177413Y-152230994D02*
X129583608Y-151966615D01*
X126165720Y-149218881D02*
X125254630Y-151265223D01*
X128360685Y-152648127D02*
X129271775Y-150601785D01*
X125254630Y-151265223D02*
X129128063Y-152989786D01*
X125116371Y-149977673D02*
X125710175Y-150242052D01*
X128579936Y-152745744D02*
X129491026Y-150699402D01*
%TO.C,D17*%
X164041871Y-109972673D02*
X164635675Y-110237052D01*
X165091220Y-109213881D02*
X164180130Y-111260223D01*
X168964653Y-110938444D02*
X165091220Y-109213881D01*
X167395810Y-112691936D02*
X168306900Y-110645594D01*
X169102913Y-112225994D02*
X168509108Y-111961615D01*
X167286185Y-112643127D02*
X168197275Y-110596785D01*
X164180130Y-111260223D02*
X168053563Y-112984786D01*
X167505436Y-112740744D02*
X168416526Y-110694402D01*
X168053563Y-112984786D02*
X168964653Y-110938444D01*
%TO.C,D18*%
X161027153Y-128210444D02*
X157153720Y-126485881D01*
X157153720Y-126485881D02*
X156242630Y-128532223D01*
X156242630Y-128532223D02*
X160116063Y-130256786D01*
X159567936Y-130012744D02*
X160479026Y-127966402D01*
X161165413Y-129497994D02*
X160571608Y-129233615D01*
X156104371Y-127244673D02*
X156698175Y-127509052D01*
X159348685Y-129915127D02*
X160259775Y-127868785D01*
X159458310Y-129963936D02*
X160369400Y-127917594D01*
X160116063Y-130256786D02*
X161027153Y-128210444D01*
%TO.C,D19*%
X153280153Y-145609444D02*
X149406720Y-143884881D01*
X148495630Y-145931223D02*
X152369063Y-147655786D01*
X151711310Y-147362936D02*
X152622400Y-145316594D01*
X152369063Y-147655786D02*
X153280153Y-145609444D01*
X151820936Y-147411744D02*
X152732026Y-145365402D01*
X149406720Y-143884881D02*
X148495630Y-145931223D01*
X153418413Y-146896994D02*
X152824608Y-146632615D01*
X148357371Y-144643673D02*
X148951175Y-144908052D01*
X151601685Y-147314127D02*
X152512775Y-145267785D01*
%TO.C,D20*%
X143964310Y-164825436D02*
X144875400Y-162779094D01*
X145533153Y-163071944D02*
X141659720Y-161347381D01*
X145671413Y-164359494D02*
X145077608Y-164095115D01*
X143854685Y-164776627D02*
X144765775Y-162730285D01*
X141659720Y-161347381D02*
X140748630Y-163393723D01*
X144622063Y-165118286D02*
X145533153Y-163071944D01*
X140610371Y-162106173D02*
X141204175Y-162370552D01*
X140748630Y-163393723D02*
X144622063Y-165118286D01*
X144073936Y-164874244D02*
X144985026Y-162827902D01*
%TO.C,D21*%
X179345371Y-121910673D02*
X179939175Y-122175052D01*
X182808936Y-124678744D02*
X183720026Y-122632402D01*
X184268153Y-122876444D02*
X180394720Y-121151881D01*
X182589685Y-124581127D02*
X183500775Y-122534785D01*
X179483630Y-123198223D02*
X183357063Y-124922786D01*
X182699310Y-124629936D02*
X183610400Y-122583594D01*
X184406413Y-124163994D02*
X183812608Y-123899615D01*
X180394720Y-121151881D02*
X179483630Y-123198223D01*
X183357063Y-124922786D02*
X184268153Y-122876444D01*
%TO.C,D22*%
X176457653Y-140338944D02*
X172584220Y-138614381D01*
X174888810Y-142092436D02*
X175799900Y-140046094D01*
X175546563Y-142385286D02*
X176457653Y-140338944D01*
X174779185Y-142043627D02*
X175690275Y-139997285D01*
X172584220Y-138614381D02*
X171673130Y-140660723D01*
X174998436Y-142141244D02*
X175909526Y-140094902D01*
X176595913Y-141626494D02*
X176002108Y-141362115D01*
X171673130Y-140660723D02*
X175546563Y-142385286D01*
X171534871Y-139373173D02*
X172128675Y-139637552D01*
%TO.C,D23*%
X167251436Y-159603744D02*
X168162526Y-157557402D01*
X163926130Y-158123223D02*
X167799563Y-159847786D01*
X167032185Y-159506127D02*
X167943275Y-157459785D01*
X167799563Y-159847786D02*
X168710653Y-157801444D01*
X168710653Y-157801444D02*
X164837220Y-156076881D01*
X168848913Y-159088994D02*
X168255108Y-158824615D01*
X164837220Y-156076881D02*
X163926130Y-158123223D01*
X163787871Y-156835673D02*
X164381675Y-157100052D01*
X167141810Y-159554936D02*
X168052900Y-157508594D01*
%TO.C,D24*%
X156040871Y-174171173D02*
X156634675Y-174435552D01*
X159504436Y-176939244D02*
X160415526Y-174892902D01*
X157090220Y-173412381D02*
X156179130Y-175458723D01*
X156179130Y-175458723D02*
X160052563Y-177183286D01*
X159394810Y-176890436D02*
X160305900Y-174844094D01*
X161101913Y-176424494D02*
X160508108Y-176160115D01*
X160963653Y-175136944D02*
X157090220Y-173412381D01*
X160052563Y-177183286D02*
X160963653Y-175136944D01*
X159285185Y-176841627D02*
X160196275Y-174795285D01*
%TO.C,D25*%
X216483100Y-122584440D02*
X217394190Y-124630782D01*
X215825347Y-122877290D02*
X216736437Y-124923632D01*
X220609870Y-123199069D02*
X219698780Y-121152727D01*
X216736437Y-124923632D02*
X220609870Y-123199069D01*
X219698780Y-121152727D02*
X215825347Y-122877290D01*
X215687087Y-124164840D02*
X216280892Y-123900461D01*
X220748129Y-121911519D02*
X220154325Y-122175898D01*
X216373474Y-122633248D02*
X217284564Y-124679590D01*
X216592725Y-122535631D02*
X217503815Y-124581973D01*
%TO.C,D26*%
X223434087Y-141626494D02*
X224027892Y-141362115D01*
X224120474Y-140094902D02*
X225031564Y-142141244D01*
X228356870Y-140660723D02*
X227445780Y-138614381D01*
X224483437Y-142385286D02*
X228356870Y-140660723D01*
X223572347Y-140338944D02*
X224483437Y-142385286D01*
X227445780Y-138614381D02*
X223572347Y-140338944D01*
X224230100Y-140046094D02*
X225141190Y-142092436D01*
X224339725Y-139997285D02*
X225250815Y-142043627D01*
X228495129Y-139373173D02*
X227901325Y-139637552D01*
%TO.C,D27*%
X236198629Y-156772173D02*
X235604825Y-157036552D01*
X231933600Y-157445094D02*
X232844690Y-159491436D01*
X232186937Y-159784286D02*
X236060370Y-158059723D01*
X231137587Y-159025494D02*
X231731392Y-158761115D01*
X231823974Y-157493902D02*
X232735064Y-159540244D01*
X236060370Y-158059723D02*
X235149280Y-156013381D01*
X231275847Y-157737944D02*
X232186937Y-159784286D01*
X235149280Y-156013381D02*
X231275847Y-157737944D01*
X232043225Y-157396285D02*
X232954315Y-159442627D01*
%TO.C,D28*%
X238864587Y-176424494D02*
X239458392Y-176160115D01*
X239913937Y-177183286D02*
X243787370Y-175458723D01*
X243787370Y-175458723D02*
X242876280Y-173412381D01*
X239550974Y-174892902D02*
X240462064Y-176939244D01*
X242876280Y-173412381D02*
X239002847Y-175136944D01*
X239770225Y-174795285D02*
X240681315Y-176841627D01*
X243925629Y-174171173D02*
X243331825Y-174435552D01*
X239660600Y-174844094D02*
X240571690Y-176890436D01*
X239002847Y-175136944D02*
X239913937Y-177183286D01*
%TO.C,D29*%
X232147225Y-110469785D02*
X233058315Y-112516127D01*
X231241587Y-112098994D02*
X231835392Y-111834615D01*
X235253280Y-109086881D02*
X231379847Y-110811444D01*
X236302629Y-109845673D02*
X235708825Y-110110052D01*
X231927974Y-110567402D02*
X232839064Y-112613744D01*
X232290937Y-112857786D02*
X236164370Y-111133223D01*
X232037600Y-110518594D02*
X232948690Y-112564936D01*
X231379847Y-110811444D02*
X232290937Y-112857786D01*
X236164370Y-111133223D02*
X235253280Y-109086881D01*
%TO.C,D30*%
X239149847Y-128293290D02*
X240060937Y-130339632D01*
X243023280Y-126568727D02*
X239149847Y-128293290D01*
X239697974Y-128049248D02*
X240609064Y-130095590D01*
X239011587Y-129580840D02*
X239605392Y-129316461D01*
X244072629Y-127327519D02*
X243478825Y-127591898D01*
X239917225Y-127951631D02*
X240828315Y-129997973D01*
X240060937Y-130339632D02*
X243934370Y-128615069D01*
X239807600Y-128000440D02*
X240718690Y-130046782D01*
X243934370Y-128615069D02*
X243023280Y-126568727D01*
%TO.C,D31*%
X247680937Y-147655786D02*
X251554370Y-145931223D01*
X247317974Y-145365402D02*
X248229064Y-147411744D01*
X251692629Y-144643673D02*
X251098825Y-144908052D01*
X246631587Y-146896994D02*
X247225392Y-146632615D01*
X250643280Y-143884881D02*
X246769847Y-145609444D01*
X247427600Y-145316594D02*
X248338690Y-147362936D01*
X251554370Y-145931223D02*
X250643280Y-143884881D01*
X247537225Y-145267785D02*
X248448315Y-147314127D01*
X246769847Y-145609444D02*
X247680937Y-147655786D01*
%TO.C,D32*%
X255220725Y-162793785D02*
X256131815Y-164840127D01*
X255111100Y-162842594D02*
X256022190Y-164888936D01*
X254453347Y-163135444D02*
X255364437Y-165181786D01*
X258326780Y-161410881D02*
X254453347Y-163135444D01*
X255001474Y-162891402D02*
X255912564Y-164937744D01*
X254315087Y-164422994D02*
X254908892Y-164158615D01*
X259376129Y-162169673D02*
X258782325Y-162434052D01*
X259237870Y-163457223D02*
X258326780Y-161410881D01*
X255364437Y-165181786D02*
X259237870Y-163457223D01*
%TO.C,D33*%
X250643280Y-97018727D02*
X246769847Y-98743290D01*
X247680937Y-100789632D02*
X251554370Y-99065069D01*
X247317974Y-98499248D02*
X248229064Y-100545590D01*
X246769847Y-98743290D02*
X247680937Y-100789632D01*
X247427600Y-98450440D02*
X248338690Y-100496782D01*
X251554370Y-99065069D02*
X250643280Y-97018727D01*
X247537225Y-98401631D02*
X248448315Y-100447973D01*
X251692629Y-97777519D02*
X251098825Y-98041898D01*
X246631587Y-100030840D02*
X247225392Y-99766461D01*
%TO.C,D34*%
X259301370Y-116515069D02*
X258390280Y-114468727D01*
X255174600Y-115900440D02*
X256085690Y-117946782D01*
X255284225Y-115851631D02*
X256195315Y-117897973D01*
X254378587Y-117480840D02*
X254972392Y-117216461D01*
X258390280Y-114468727D02*
X254516847Y-116193290D01*
X259439629Y-115227519D02*
X258845825Y-115491898D01*
X255064974Y-115949248D02*
X255976064Y-117995590D01*
X255427937Y-118239632D02*
X259301370Y-116515069D01*
X254516847Y-116193290D02*
X255427937Y-118239632D01*
%TO.C,D35*%
X266984870Y-133915069D02*
X266073780Y-131868727D01*
X262062087Y-134880840D02*
X262655892Y-134616461D01*
X262200347Y-133593290D02*
X263111437Y-135639632D01*
X262748474Y-133349248D02*
X263659564Y-135395590D01*
X262858100Y-133300440D02*
X263769190Y-135346782D01*
X262967725Y-133251631D02*
X263878815Y-135297973D01*
X263111437Y-135639632D02*
X266984870Y-133915069D01*
X266073780Y-131868727D02*
X262200347Y-133593290D01*
X267123129Y-132627519D02*
X266529325Y-132891898D01*
%TO.C,D36*%
X274003280Y-149155381D02*
X270129847Y-150879944D01*
X270677974Y-150635902D02*
X271589064Y-152682244D01*
X270787600Y-150587094D02*
X271698690Y-152633436D01*
X275052629Y-149914173D02*
X274458825Y-150178552D01*
X269991587Y-152167494D02*
X270585392Y-151903115D01*
X271040937Y-152926286D02*
X274914370Y-151201723D01*
X274914370Y-151201723D02*
X274003280Y-149155381D01*
X270897225Y-150538285D02*
X271808315Y-152584627D01*
X270129847Y-150879944D02*
X271040937Y-152926286D01*
%TO.C,D37*%
X266748974Y-95099248D02*
X267660064Y-97145590D01*
X266858600Y-95050440D02*
X267769690Y-97096782D01*
X270985370Y-95665069D02*
X270074280Y-93618727D01*
X271123629Y-94377519D02*
X270529825Y-94641898D01*
X267111937Y-97389632D02*
X270985370Y-95665069D01*
X270074280Y-93618727D02*
X266200847Y-95343290D01*
X266200847Y-95343290D02*
X267111937Y-97389632D01*
X266968225Y-95001631D02*
X267879315Y-97047973D01*
X266062587Y-96630840D02*
X266656392Y-96366461D01*
%TO.C,D38*%
X278605370Y-113038223D02*
X277694280Y-110991881D01*
X274731937Y-114762786D02*
X278605370Y-113038223D01*
X273820847Y-112716444D02*
X274731937Y-114762786D01*
X274478600Y-112423594D02*
X275389690Y-114469936D01*
X274588225Y-112374785D02*
X275499315Y-114421127D01*
X273682587Y-114003994D02*
X274276392Y-113739615D01*
X278743629Y-111750673D02*
X278149825Y-112015052D01*
X274368974Y-112472402D02*
X275280064Y-114518744D01*
X277694280Y-110991881D02*
X273820847Y-112716444D01*
%TO.C,D39*%
X286552629Y-129213173D02*
X285958825Y-129477552D01*
X285503280Y-128454381D02*
X281629847Y-130178944D01*
X281491587Y-131466494D02*
X282085392Y-131202115D01*
X282287600Y-129886094D02*
X283198690Y-131932436D01*
X282540937Y-132225286D02*
X286414370Y-130500723D01*
X286414370Y-130500723D02*
X285503280Y-128454381D01*
X281629847Y-130178944D02*
X282540937Y-132225286D01*
X282397225Y-129837285D02*
X283308315Y-131883627D01*
X282177974Y-129934902D02*
X283089064Y-131981244D01*
%TO.C,D40*%
X289314847Y-147577944D02*
X290225937Y-149624286D01*
X289972600Y-147285094D02*
X290883690Y-149331436D01*
X289176587Y-148865494D02*
X289770392Y-148601115D01*
X294099370Y-147899723D02*
X293188280Y-145853381D01*
X293188280Y-145853381D02*
X289314847Y-147577944D01*
X290082225Y-147236285D02*
X290993315Y-149282627D01*
X294237629Y-146612173D02*
X293643825Y-146876552D01*
X289862974Y-147333902D02*
X290774064Y-149380244D01*
X290225937Y-149624286D02*
X294099370Y-147899723D01*
%TO.C,D41*%
X289251280Y-90163881D02*
X285377847Y-91888444D01*
X285925974Y-91644402D02*
X286837064Y-93690744D01*
X285377847Y-91888444D02*
X286288937Y-93934786D01*
X290162370Y-92210223D02*
X289251280Y-90163881D01*
X286145225Y-91546785D02*
X287056315Y-93593127D01*
X290300629Y-90922673D02*
X289706825Y-91187052D01*
X286035600Y-91595594D02*
X286946690Y-93641936D01*
X285239587Y-93175994D02*
X285833392Y-92911615D01*
X286288937Y-93934786D02*
X290162370Y-92210223D01*
%TO.C,D42*%
X298174629Y-108321673D02*
X297580825Y-108586052D01*
X294019225Y-108945785D02*
X294930315Y-110992127D01*
X293909600Y-108994594D02*
X294820690Y-111040936D01*
X293799974Y-109043402D02*
X294711064Y-111089744D01*
X297125280Y-107562881D02*
X293251847Y-109287444D01*
X293113587Y-110574994D02*
X293707392Y-110310615D01*
X294162937Y-111333786D02*
X298036370Y-109609223D01*
X293251847Y-109287444D02*
X294162937Y-111333786D01*
X298036370Y-109609223D02*
X297125280Y-107562881D01*
%TO.C,D43*%
X300871847Y-126749944D02*
X301782937Y-128796286D01*
X301529600Y-126457094D02*
X302440690Y-128503436D01*
X304745280Y-125025381D02*
X300871847Y-126749944D01*
X301419974Y-126505902D02*
X302331064Y-128552244D01*
X301782937Y-128796286D02*
X305656370Y-127071723D01*
X300733587Y-128037494D02*
X301327392Y-127773115D01*
X305656370Y-127071723D02*
X304745280Y-125025381D01*
X305794629Y-125784173D02*
X305200825Y-126048552D01*
X301639225Y-126408285D02*
X302550315Y-128454627D01*
%TO.C,D44*%
X312603280Y-142424381D02*
X308729847Y-144148944D01*
X308729847Y-144148944D02*
X309640937Y-146195286D01*
X313652629Y-143183173D02*
X313058825Y-143447552D01*
X308591587Y-145436494D02*
X309185392Y-145172115D01*
X309640937Y-146195286D02*
X313514370Y-144470723D01*
X309277974Y-143904902D02*
X310189064Y-145951244D01*
X309497225Y-143807285D02*
X310408315Y-145853627D01*
X313514370Y-144470723D02*
X312603280Y-142424381D01*
X309387600Y-143856094D02*
X310298690Y-145902436D01*
%TO.C,D45*%
X307308100Y-92548094D02*
X308219190Y-94594436D01*
X307417725Y-92499285D02*
X308328815Y-94545627D01*
X306512087Y-94128494D02*
X307105892Y-93864115D01*
X306650347Y-92840944D02*
X307561437Y-94887286D01*
X307561437Y-94887286D02*
X311434870Y-93162723D01*
X311573129Y-91875173D02*
X310979325Y-92139552D01*
X307198474Y-92596902D02*
X308109564Y-94643244D01*
X310523780Y-91116381D02*
X306650347Y-92840944D01*
X311434870Y-93162723D02*
X310523780Y-91116381D01*
%TO.C,D46*%
X315371937Y-112389632D02*
X319245370Y-110665069D01*
X314322587Y-111630840D02*
X314916392Y-111366461D01*
X318334280Y-108618727D02*
X314460847Y-110343290D01*
X315118600Y-110050440D02*
X316029690Y-112096782D01*
X315008974Y-110099248D02*
X315920064Y-112145590D01*
X319245370Y-110665069D02*
X318334280Y-108618727D01*
X314460847Y-110343290D02*
X315371937Y-112389632D01*
X315228225Y-110001631D02*
X316139315Y-112047973D01*
X319383629Y-109377519D02*
X318789825Y-109641898D01*
%TO.C,D47*%
X323038725Y-127424285D02*
X323949815Y-129470627D01*
X322133087Y-129053494D02*
X322726892Y-128789115D01*
X323182437Y-129812286D02*
X327055870Y-128087723D01*
X322271347Y-127765944D02*
X323182437Y-129812286D01*
X322819474Y-127521902D02*
X323730564Y-129568244D01*
X322929100Y-127473094D02*
X323840190Y-129519436D01*
X327194129Y-126800173D02*
X326600325Y-127064552D01*
X327055870Y-128087723D02*
X326144780Y-126041381D01*
X326144780Y-126041381D02*
X322271347Y-127765944D01*
%TO.C,D48*%
X330612600Y-144872094D02*
X331523690Y-146918436D01*
X329816587Y-146452494D02*
X330410392Y-146188115D01*
X330502974Y-144920902D02*
X331414064Y-146967244D01*
X330722225Y-144823285D02*
X331633315Y-146869627D01*
X334877629Y-144199173D02*
X334283825Y-144463552D01*
X329954847Y-145164944D02*
X330865937Y-147211286D01*
X334739370Y-145486723D02*
X333828280Y-143440381D01*
X333828280Y-143440381D02*
X329954847Y-145164944D01*
X330865937Y-147211286D02*
X334739370Y-145486723D01*
%TO.C,SW2*%
X82826432Y-128425370D02*
X70064202Y-122743259D01*
X70064202Y-122743259D02*
X75746313Y-109981029D01*
X75746313Y-109981029D02*
X88508543Y-115663140D01*
X88508543Y-115663140D02*
X82826432Y-128425370D01*
%TO.C,SW3*%
X62314202Y-140143259D02*
X67996313Y-127381029D01*
X67996313Y-127381029D02*
X80758543Y-133063140D01*
X75076432Y-145825370D02*
X62314202Y-140143259D01*
X80758543Y-133063140D02*
X75076432Y-145825370D01*
%TO.C,SW4*%
X60246313Y-144781029D02*
X73008543Y-150463140D01*
X54564202Y-157543259D02*
X60246313Y-144781029D01*
X73008543Y-150463140D02*
X67326432Y-163225370D01*
X67326432Y-163225370D02*
X54564202Y-157543259D01*
%TO.C,SW5*%
X111851432Y-110050370D02*
X99089202Y-104368259D01*
X104771313Y-91606029D02*
X117533543Y-97288140D01*
X99089202Y-104368259D02*
X104771313Y-91606029D01*
X117533543Y-97288140D02*
X111851432Y-110050370D01*
%TO.C,SW6*%
X104101432Y-127450370D02*
X91339202Y-121768259D01*
X91339202Y-121768259D02*
X97021313Y-109006029D01*
X97021313Y-109006029D02*
X109783543Y-114688140D01*
X109783543Y-114688140D02*
X104101432Y-127450370D01*
%TO.C,SW7*%
X83589202Y-139168259D02*
X89271313Y-126406029D01*
X89271313Y-126406029D02*
X102033543Y-132088140D01*
X96351432Y-144850370D02*
X83589202Y-139168259D01*
X102033543Y-132088140D02*
X96351432Y-144850370D01*
%TO.C,SW8*%
X88601432Y-162275370D02*
X75839202Y-156593259D01*
X75839202Y-156593259D02*
X81521313Y-143831029D01*
X81521313Y-143831029D02*
X94283543Y-149513140D01*
X94283543Y-149513140D02*
X88601432Y-162275370D01*
%TO.C,SW9*%
X118439202Y-107768259D02*
X124121313Y-95006029D01*
X131201432Y-113450370D02*
X118439202Y-107768259D01*
X136883543Y-100688140D02*
X131201432Y-113450370D01*
X124121313Y-95006029D02*
X136883543Y-100688140D01*
%TO.C,SW10*%
X123451432Y-130850370D02*
X110689202Y-125168259D01*
X110689202Y-125168259D02*
X116371313Y-112406029D01*
X129133543Y-118088140D02*
X123451432Y-130850370D01*
X116371313Y-112406029D02*
X129133543Y-118088140D01*
%TO.C,SW11*%
X108621313Y-129806029D02*
X121383543Y-135488140D01*
X115701432Y-148250370D02*
X102939202Y-142568259D01*
X102939202Y-142568259D02*
X108621313Y-129806029D01*
X121383543Y-135488140D02*
X115701432Y-148250370D01*
%TO.C,SW12*%
X113633543Y-152913140D02*
X107951432Y-165675370D01*
X107951432Y-165675370D02*
X95189202Y-159993259D01*
X100871313Y-147231029D02*
X113633543Y-152913140D01*
X95189202Y-159993259D02*
X100871313Y-147231029D01*
%TO.C,SW13*%
X156233543Y-104088140D02*
X150551432Y-116850370D01*
X150551432Y-116850370D02*
X137789202Y-111168259D01*
X137789202Y-111168259D02*
X143471313Y-98406029D01*
X143471313Y-98406029D02*
X156233543Y-104088140D01*
%TO.C,SW14*%
X135696313Y-115831029D02*
X148458543Y-121513140D01*
X142776432Y-134275370D02*
X130014202Y-128593259D01*
X148458543Y-121513140D02*
X142776432Y-134275370D01*
X130014202Y-128593259D02*
X135696313Y-115831029D01*
%TO.C,SW15*%
X122264202Y-145985559D02*
X127946313Y-133223329D01*
X140708543Y-138905440D02*
X135026432Y-151667670D01*
X135026432Y-151667670D02*
X122264202Y-145985559D01*
X127946313Y-133223329D02*
X140708543Y-138905440D01*
%TO.C,SW17*%
X166001432Y-128950370D02*
X153239202Y-123268259D01*
X171683543Y-116188140D02*
X166001432Y-128950370D01*
X158921313Y-110506029D02*
X171683543Y-116188140D01*
X153239202Y-123268259D02*
X158921313Y-110506029D01*
%TO.C,SW18*%
X158251432Y-146350370D02*
X145489202Y-140668259D01*
X163933543Y-133588140D02*
X158251432Y-146350370D01*
X145489202Y-140668259D02*
X151171313Y-127906029D01*
X151171313Y-127906029D02*
X163933543Y-133588140D01*
%TO.C,SW19*%
X143421313Y-145331029D02*
X156183543Y-151013140D01*
X156183543Y-151013140D02*
X150501432Y-163775370D01*
X150501432Y-163775370D02*
X137739202Y-158093259D01*
X137739202Y-158093259D02*
X143421313Y-145331029D01*
%TO.C,U1*%
X196088000Y-86233000D02*
X196088000Y-88773000D01*
X193675000Y-91313000D02*
X191005000Y-91313000D01*
X191008000Y-121793000D02*
X206375000Y-121793000D01*
X206375000Y-119253000D02*
X209042000Y-119253000D01*
X206375000Y-119253000D02*
X206375000Y-91313000D01*
X209042000Y-121793000D02*
X209042000Y-88773000D01*
X193675000Y-121793000D02*
X191005000Y-121793000D01*
X191008000Y-88773000D02*
X191005000Y-121793000D01*
X206375000Y-121793000D02*
X209042000Y-121793000D01*
X203962000Y-86233000D02*
X203962000Y-88773000D01*
X196088000Y-88773000D02*
X191008000Y-88773000D01*
X206375000Y-91313000D02*
X209045000Y-91313000D01*
X203962000Y-86233000D02*
X196088000Y-86233000D01*
X206375000Y-119253000D02*
X206375000Y-121793000D01*
X193675000Y-121793000D02*
X193675000Y-91313000D01*
X209042000Y-88773000D02*
X203962000Y-88773000D01*
%TO.C,D1*%
X93385513Y-94153894D02*
X92791708Y-93889515D01*
X91788036Y-94668644D02*
X92699126Y-92622302D01*
X88462730Y-93188123D02*
X92336163Y-94912686D01*
X88324471Y-91900573D02*
X88918275Y-92164952D01*
X89373820Y-91141781D02*
X88462730Y-93188123D01*
X92336163Y-94912686D02*
X93247253Y-92866344D01*
X91568785Y-94571027D02*
X92479875Y-92524685D01*
X93247253Y-92866344D02*
X89373820Y-91141781D01*
X91678410Y-94619836D02*
X92589500Y-92573494D01*
%TO.C,SW1*%
X77814202Y-105343259D02*
X83496313Y-92581029D01*
X83496313Y-92581029D02*
X96258543Y-98263140D01*
X90576432Y-111025370D02*
X77814202Y-105343259D01*
X96258543Y-98263140D02*
X90576432Y-111025370D01*
%TO.C,SW20*%
X145527870Y-174942068D02*
X139845759Y-187704298D01*
X132765640Y-169259957D02*
X145527870Y-174942068D01*
X139845759Y-187704298D02*
X127083529Y-182022187D01*
X127083529Y-182022187D02*
X132765640Y-169259957D01*
%TO.C,SW21*%
X181451432Y-141050370D02*
X168689202Y-135368259D01*
X174371313Y-122606029D02*
X187133543Y-128288140D01*
X168689202Y-135368259D02*
X174371313Y-122606029D01*
X187133543Y-128288140D02*
X181451432Y-141050370D01*
%TO.C,SW22*%
X179383543Y-145713140D02*
X173701432Y-158475370D01*
X173701432Y-158475370D02*
X160939202Y-152793259D01*
X166621313Y-140031029D02*
X179383543Y-145713140D01*
X160939202Y-152793259D02*
X166621313Y-140031029D01*
%TO.C,SW23*%
X171633543Y-163105440D02*
X165951432Y-175867670D01*
X153189202Y-170185559D02*
X158871313Y-157423329D01*
X165951432Y-175867670D02*
X153189202Y-170185559D01*
X158871313Y-157423329D02*
X171633543Y-163105440D01*
%TO.C,SW24*%
X160027870Y-189217068D02*
X154345759Y-201979298D01*
X154345759Y-201979298D02*
X141583529Y-196297187D01*
X147265640Y-183534957D02*
X160027870Y-189217068D01*
X141583529Y-196297187D02*
X147265640Y-183534957D01*
%TO.C,SW25*%
X231359487Y-135367828D02*
X218597257Y-141049938D01*
X212915146Y-128287708D02*
X225677376Y-122605598D01*
X225677376Y-122605598D02*
X231359487Y-135367828D01*
X218597257Y-141049938D02*
X212915146Y-128287708D01*
%TO.C,SW26*%
X220665146Y-145687708D02*
X233427376Y-140005598D01*
X239109487Y-152767828D02*
X226347257Y-158449938D01*
X233427376Y-140005598D02*
X239109487Y-152767828D01*
X226347257Y-158449938D02*
X220665146Y-145687708D01*
%TO.C,SW27*%
X246859487Y-170167828D02*
X234097257Y-175849938D01*
X241177376Y-157405598D02*
X246859487Y-170167828D01*
X234097257Y-175849938D02*
X228415146Y-163087708D01*
X228415146Y-163087708D02*
X241177376Y-157405598D01*
%TO.C,SW28*%
X258489748Y-196264722D02*
X245727518Y-201946833D01*
X252807638Y-183502492D02*
X258489748Y-196264722D01*
X240045408Y-189184603D02*
X252807638Y-183502492D01*
X245727518Y-201946833D02*
X240045408Y-189184603D01*
%TO.C,SW29*%
X228390146Y-116187708D02*
X241152376Y-110505598D01*
X246834487Y-123267828D02*
X234072257Y-128949938D01*
X234072257Y-128949938D02*
X228390146Y-116187708D01*
X241152376Y-110505598D02*
X246834487Y-123267828D01*
%TO.C,SW30*%
X248927376Y-127905598D02*
X254609487Y-140667828D01*
X254609487Y-140667828D02*
X241847257Y-146349938D01*
X241847257Y-146349938D02*
X236165146Y-133587708D01*
X236165146Y-133587708D02*
X248927376Y-127905598D01*
%TO.C,SW31*%
X256652376Y-145305598D02*
X262334487Y-158067828D01*
X243890146Y-150987708D02*
X256652376Y-145305598D01*
X262334487Y-158067828D02*
X249572257Y-163749938D01*
X249572257Y-163749938D02*
X243890146Y-150987708D01*
%TO.C,SW32*%
X260227518Y-187671833D02*
X254545408Y-174909603D01*
X254545408Y-174909603D02*
X267307638Y-169227492D01*
X267307638Y-169227492D02*
X272989748Y-181989722D01*
X272989748Y-181989722D02*
X260227518Y-187671833D01*
%TO.C,SW33*%
X243840146Y-104087708D02*
X256602376Y-98405598D01*
X249522257Y-116849938D02*
X243840146Y-104087708D01*
X262284487Y-111167828D02*
X249522257Y-116849938D01*
X256602376Y-98405598D02*
X262284487Y-111167828D01*
%TO.C,SW34*%
X270034487Y-128567828D02*
X257272257Y-134249938D01*
X257272257Y-134249938D02*
X251590146Y-121487708D01*
X264352376Y-115805598D02*
X270034487Y-128567828D01*
X251590146Y-121487708D02*
X264352376Y-115805598D01*
%TO.C,SW35*%
X272102376Y-133205598D02*
X277784487Y-145967828D01*
X259340146Y-138887708D02*
X272102376Y-133205598D01*
X265022257Y-151649938D02*
X259340146Y-138887708D01*
X277784487Y-145967828D02*
X265022257Y-151649938D01*
%TO.C,SW37*%
X281649487Y-107787828D02*
X268887257Y-113469938D01*
X263205146Y-100707708D02*
X275967376Y-95025598D01*
X268887257Y-113469938D02*
X263205146Y-100707708D01*
X275967376Y-95025598D02*
X281649487Y-107787828D01*
%TO.C,SW38*%
X276612257Y-130844938D02*
X270930146Y-118082708D01*
X289374487Y-125162828D02*
X276612257Y-130844938D01*
X283692376Y-112400598D02*
X289374487Y-125162828D01*
X270930146Y-118082708D02*
X283692376Y-112400598D01*
%TO.C,SW39*%
X284362257Y-148244938D02*
X278680146Y-135482708D01*
X278680146Y-135482708D02*
X291442376Y-129800598D01*
X291442376Y-129800598D02*
X297124487Y-142562828D01*
X297124487Y-142562828D02*
X284362257Y-148244938D01*
%TO.C,SW40*%
X286430146Y-152882708D02*
X299192376Y-147200598D01*
X299192376Y-147200598D02*
X304874487Y-159962828D01*
X292112257Y-165644938D02*
X286430146Y-152882708D01*
X304874487Y-159962828D02*
X292112257Y-165644938D01*
%TO.C,SW41*%
X300974487Y-104362828D02*
X288212257Y-110044938D01*
X288212257Y-110044938D02*
X282530146Y-97282708D01*
X295292376Y-91600598D02*
X300974487Y-104362828D01*
X282530146Y-97282708D02*
X295292376Y-91600598D01*
%TO.C,SW42*%
X295972257Y-127449938D02*
X290290146Y-114687708D01*
X308734487Y-121767828D02*
X295972257Y-127449938D01*
X290290146Y-114687708D02*
X303052376Y-109005598D01*
X303052376Y-109005598D02*
X308734487Y-121767828D01*
%TO.C,SW43*%
X316459487Y-139192828D02*
X303697257Y-144874938D01*
X298015146Y-132112708D02*
X310777376Y-126430598D01*
X303697257Y-144874938D02*
X298015146Y-132112708D01*
X310777376Y-126430598D02*
X316459487Y-139192828D01*
%TO.C,SW44*%
X305765146Y-149487708D02*
X318527376Y-143805598D01*
X311447257Y-162249938D02*
X305765146Y-149487708D01*
X324209487Y-156567828D02*
X311447257Y-162249938D01*
X318527376Y-143805598D02*
X324209487Y-156567828D01*
%TO.C,SW45*%
X322259487Y-105317828D02*
X309497257Y-110999938D01*
X309497257Y-110999938D02*
X303815146Y-98237708D01*
X316577376Y-92555598D02*
X322259487Y-105317828D01*
X303815146Y-98237708D02*
X316577376Y-92555598D01*
%TO.C,SW46*%
X311565146Y-115637708D02*
X324327376Y-109955598D01*
X330009487Y-122717828D02*
X317247257Y-128399938D01*
X317247257Y-128399938D02*
X311565146Y-115637708D01*
X324327376Y-109955598D02*
X330009487Y-122717828D01*
%TO.C,SW47*%
X332077376Y-127380598D02*
X337759487Y-140142828D01*
X337759487Y-140142828D02*
X324997257Y-145824938D01*
X319315146Y-133062708D02*
X332077376Y-127380598D01*
X324997257Y-145824938D02*
X319315146Y-133062708D01*
%TO.C,SW48*%
X345484487Y-157517828D02*
X332722257Y-163199938D01*
X332722257Y-163199938D02*
X327040146Y-150437708D01*
X327040146Y-150437708D02*
X339802376Y-144755598D01*
X339802376Y-144755598D02*
X345484487Y-157517828D01*
%TO.C,SW16*%
X119215640Y-152784957D02*
X131977870Y-158467068D01*
X126295759Y-171229298D02*
X113533529Y-165547187D01*
X131977870Y-158467068D02*
X126295759Y-171229298D01*
X113533529Y-165547187D02*
X119215640Y-152784957D01*
%TO.C,SW36*%
X280807638Y-152777492D02*
X286489748Y-165539722D01*
X286489748Y-165539722D02*
X273727518Y-171221833D01*
X273727518Y-171221833D02*
X268045408Y-158459603D01*
X268045408Y-158459603D02*
X280807638Y-152777492D01*
%TO.C,D11*%
X116849810Y-131868936D02*
X117760900Y-129822594D01*
X117507563Y-132161786D02*
X118418653Y-130115444D01*
X118418653Y-130115444D02*
X114545220Y-128390881D01*
X118556913Y-131402994D02*
X117963108Y-131138615D01*
X116959436Y-131917744D02*
X117870526Y-129871402D01*
X114545220Y-128390881D02*
X113634130Y-130437223D01*
X116740185Y-131820127D02*
X117651275Y-129773785D01*
X113495871Y-129149673D02*
X114089675Y-129414052D01*
X113634130Y-130437223D02*
X117507563Y-132161786D01*
%TO.C,SW49*%
X203450000Y-126516000D02*
X203450000Y-125016000D01*
X197700000Y-129016000D02*
X202200000Y-129016000D01*
X196450000Y-125016000D02*
X196450000Y-126516000D01*
X202200000Y-122516000D02*
X197700000Y-122516000D01*
%TD*%
%LPC*%
D13*
%TO.C,D2*%
X86677500Y-112014000D03*
D14*
X79716284Y-108914667D03*
%TD*%
D13*
%TO.C,D3*%
X78930500Y-129476500D03*
D14*
X71969284Y-126377167D03*
%TD*%
D13*
%TO.C,D4*%
X71183500Y-146812000D03*
D14*
X64222284Y-143712667D03*
%TD*%
D13*
%TO.C,D5*%
X115697000Y-93599000D03*
D14*
X108735784Y-90499667D03*
%TD*%
D13*
%TO.C,D6*%
X107950000Y-111036100D03*
D14*
X100988784Y-107936767D03*
%TD*%
D13*
%TO.C,D7*%
X100177600Y-128460500D03*
D14*
X93216384Y-125361167D03*
%TD*%
D13*
%TO.C,D8*%
X92456000Y-145859500D03*
D14*
X85494784Y-142760167D03*
%TD*%
D13*
%TO.C,D9*%
X135001000Y-97028000D03*
D14*
X128039784Y-93928667D03*
%TD*%
D13*
%TO.C,D10*%
X127317500Y-114490500D03*
D14*
X120356284Y-111391167D03*
%TD*%
D13*
%TO.C,D12*%
X111823500Y-149225000D03*
D14*
X104862284Y-146125667D03*
%TD*%
D13*
%TO.C,D13*%
X154432000Y-100457000D03*
D14*
X147470784Y-97357667D03*
%TD*%
D13*
%TO.C,D14*%
X146558000Y-117792500D03*
D14*
X139596784Y-114693167D03*
%TD*%
D13*
%TO.C,D15*%
X138874500Y-135318500D03*
D14*
X131913284Y-132219167D03*
%TD*%
D13*
%TO.C,D16*%
X131127500Y-152654000D03*
D14*
X124166284Y-149554667D03*
%TD*%
D13*
%TO.C,D17*%
X170053000Y-112649000D03*
D14*
X163091784Y-109549667D03*
%TD*%
D13*
%TO.C,D18*%
X162115500Y-129921000D03*
D14*
X155154284Y-126821667D03*
%TD*%
D13*
%TO.C,D19*%
X154368500Y-147320000D03*
D14*
X147407284Y-144220667D03*
%TD*%
D13*
%TO.C,D20*%
X146621500Y-164782500D03*
D14*
X139660284Y-161683167D03*
%TD*%
D13*
%TO.C,D21*%
X185356500Y-124587000D03*
D14*
X178395284Y-121487667D03*
%TD*%
D13*
%TO.C,D22*%
X177546000Y-142049500D03*
D14*
X170584784Y-138950167D03*
%TD*%
D13*
%TO.C,D23*%
X169799000Y-159512000D03*
D14*
X162837784Y-156412667D03*
%TD*%
D13*
%TO.C,D24*%
X162052000Y-176847500D03*
D14*
X155090784Y-173748167D03*
%TD*%
D15*
%TO.C,D25*%
X214737000Y-124587846D03*
D16*
X221698216Y-121488513D03*
%TD*%
D15*
%TO.C,D26*%
X222484000Y-142049500D03*
D16*
X229445216Y-138950167D03*
%TD*%
D15*
%TO.C,D27*%
X230187500Y-159448500D03*
D16*
X237148716Y-156349167D03*
%TD*%
D15*
%TO.C,D28*%
X237914500Y-176847500D03*
D16*
X244875716Y-173748167D03*
%TD*%
D15*
%TO.C,D29*%
X230291500Y-112522000D03*
D16*
X237252716Y-109422667D03*
%TD*%
D15*
%TO.C,D30*%
X238061500Y-130003846D03*
D16*
X245022716Y-126904513D03*
%TD*%
D15*
%TO.C,D31*%
X245681500Y-147320000D03*
D16*
X252642716Y-144220667D03*
%TD*%
D15*
%TO.C,D32*%
X253365000Y-164846000D03*
D16*
X260326216Y-161746667D03*
%TD*%
D15*
%TO.C,D33*%
X245681500Y-100453846D03*
D16*
X252642716Y-97354513D03*
%TD*%
D15*
%TO.C,D34*%
X253428500Y-117903846D03*
D16*
X260389716Y-114804513D03*
%TD*%
D15*
%TO.C,D35*%
X261112000Y-135303846D03*
D16*
X268073216Y-132204513D03*
%TD*%
D15*
%TO.C,D36*%
X269041500Y-152590500D03*
D16*
X276002716Y-149491167D03*
%TD*%
D15*
%TO.C,D37*%
X265112500Y-97053846D03*
D16*
X272073716Y-93954513D03*
%TD*%
D15*
%TO.C,D38*%
X272732500Y-114427000D03*
D16*
X279693716Y-111327667D03*
%TD*%
D15*
%TO.C,D39*%
X280541500Y-131889500D03*
D16*
X287502716Y-128790167D03*
%TD*%
D15*
%TO.C,D40*%
X288226500Y-149288500D03*
D16*
X295187716Y-146189167D03*
%TD*%
D15*
%TO.C,D41*%
X284289500Y-93599000D03*
D16*
X291250716Y-90499667D03*
%TD*%
D15*
%TO.C,D42*%
X292163500Y-110998000D03*
D16*
X299124716Y-107898667D03*
%TD*%
D15*
%TO.C,D43*%
X299783500Y-128460500D03*
D16*
X306744716Y-125361167D03*
%TD*%
D15*
%TO.C,D44*%
X307641500Y-145859500D03*
D16*
X314602716Y-142760167D03*
%TD*%
D15*
%TO.C,D45*%
X305562000Y-94551500D03*
D16*
X312523216Y-91452167D03*
%TD*%
D15*
%TO.C,D46*%
X313372500Y-112053846D03*
D16*
X320333716Y-108954513D03*
%TD*%
D15*
%TO.C,D47*%
X321183000Y-129476500D03*
D16*
X328144216Y-126377167D03*
%TD*%
D15*
%TO.C,D48*%
X328866500Y-146875500D03*
D16*
X335827716Y-143776167D03*
%TD*%
D17*
%TO.C,SW2*%
X74645561Y-117136978D03*
D18*
X79286372Y-119203200D03*
D17*
X83927183Y-121269422D03*
D19*
X83673000Y-115595500D03*
X76838875Y-115333128D03*
%TD*%
D17*
%TO.C,SW3*%
X76177183Y-138669422D03*
D18*
X71536372Y-136603200D03*
D17*
X66895561Y-134536978D03*
D19*
X75923000Y-132995500D03*
X69088875Y-132733128D03*
%TD*%
D17*
%TO.C,SW4*%
X68427183Y-156069422D03*
X59145561Y-151936978D03*
D18*
X63786372Y-154003200D03*
D19*
X68173000Y-150395500D03*
X61338875Y-150133128D03*
%TD*%
D17*
%TO.C,SW5*%
X112952183Y-102894422D03*
D18*
X108311372Y-100828200D03*
D17*
X103670561Y-98761978D03*
D19*
X112698000Y-97220500D03*
X105863875Y-96958128D03*
%TD*%
D18*
%TO.C,SW6*%
X100561372Y-118228200D03*
D17*
X95920561Y-116161978D03*
X105202183Y-120294422D03*
D19*
X104948000Y-114620500D03*
X98113875Y-114358128D03*
%TD*%
D17*
%TO.C,SW7*%
X97452183Y-137694422D03*
X88170561Y-133561978D03*
D18*
X92811372Y-135628200D03*
D19*
X97198000Y-132020500D03*
X90363875Y-131758128D03*
%TD*%
D17*
%TO.C,SW8*%
X89702183Y-155119422D03*
D18*
X85061372Y-153053200D03*
D17*
X80420561Y-150986978D03*
D19*
X89448000Y-149445500D03*
X82613875Y-149183128D03*
%TD*%
D17*
%TO.C,SW9*%
X123020561Y-102161978D03*
D18*
X127661372Y-104228200D03*
D17*
X132302183Y-106294422D03*
D19*
X132048000Y-100620500D03*
X125213875Y-100358128D03*
%TD*%
D18*
%TO.C,SW10*%
X119911372Y-121628200D03*
D17*
X124552183Y-123694422D03*
X115270561Y-119561978D03*
D19*
X124298000Y-118020500D03*
X117463875Y-117758128D03*
%TD*%
D18*
%TO.C,SW11*%
X112161372Y-139028200D03*
D17*
X116802183Y-141094422D03*
X107520561Y-136961978D03*
D19*
X116548000Y-135420500D03*
X109713875Y-135158128D03*
%TD*%
D18*
%TO.C,SW12*%
X104411372Y-156453200D03*
D17*
X99770561Y-154386978D03*
X109052183Y-158519422D03*
D19*
X108798000Y-152845500D03*
X101963875Y-152583128D03*
%TD*%
D18*
%TO.C,SW13*%
X147011372Y-107628200D03*
D17*
X142370561Y-105561978D03*
X151652183Y-109694422D03*
D19*
X151398000Y-104020500D03*
X144563875Y-103758128D03*
%TD*%
D18*
%TO.C,SW14*%
X139236372Y-125053200D03*
D17*
X143877183Y-127119422D03*
X134595561Y-122986978D03*
D19*
X143623000Y-121445500D03*
X136788875Y-121183128D03*
%TD*%
D18*
%TO.C,SW15*%
X131486372Y-142445500D03*
D17*
X136127183Y-144511722D03*
X126845561Y-140379278D03*
D19*
X135873000Y-138837800D03*
X129038875Y-138575428D03*
%TD*%
D18*
%TO.C,SW17*%
X162461372Y-119728200D03*
D17*
X167102183Y-121794422D03*
X157820561Y-117661978D03*
D19*
X166848000Y-116120500D03*
X160013875Y-115858128D03*
%TD*%
D17*
%TO.C,SW18*%
X159352183Y-139194422D03*
X150070561Y-135061978D03*
D18*
X154711372Y-137128200D03*
D19*
X159098000Y-133520500D03*
X152263875Y-133258128D03*
%TD*%
D17*
%TO.C,SW19*%
X142320561Y-152486978D03*
D18*
X146961372Y-154553200D03*
D17*
X151602183Y-156619422D03*
D19*
X151348000Y-150945500D03*
X144513875Y-150683128D03*
%TD*%
D20*
%TO.C,U1*%
X207645000Y-120523000D03*
D21*
X207645000Y-117983000D03*
X207645000Y-115443000D03*
X207645000Y-112903000D03*
X207645000Y-110363000D03*
X207645000Y-107823000D03*
X207645000Y-105283000D03*
X207645000Y-102743000D03*
X207645000Y-100203000D03*
X207645000Y-97663000D03*
X207645000Y-95123000D03*
X207645000Y-92583000D03*
X192405000Y-92583000D03*
X192405000Y-95123000D03*
X192405000Y-97663000D03*
X192405000Y-100203000D03*
X192405000Y-102743000D03*
X192405000Y-105283000D03*
X192405000Y-107823000D03*
X192405000Y-110363000D03*
X192405000Y-112903000D03*
X192405000Y-115443000D03*
X192405000Y-117983000D03*
X192405000Y-120523000D03*
%TD*%
D13*
%TO.C,D1*%
X94335600Y-94576900D03*
D14*
X87374384Y-91477567D03*
%TD*%
D17*
%TO.C,SW1*%
X91677183Y-103869422D03*
D18*
X87036372Y-101803200D03*
D17*
X82395561Y-99736978D03*
D19*
X91423000Y-98195500D03*
X84588875Y-97933128D03*
%TD*%
D18*
%TO.C,SW20*%
X136305700Y-178482128D03*
D17*
X134239478Y-183122939D03*
X138371922Y-173841317D03*
D19*
X132698000Y-174095500D03*
X132435628Y-180929625D03*
%TD*%
D17*
%TO.C,SW21*%
X173270561Y-129761978D03*
D18*
X177911372Y-131828200D03*
D17*
X182552183Y-133894422D03*
D19*
X182298000Y-128220500D03*
X175463875Y-127958128D03*
%TD*%
D18*
%TO.C,SW22*%
X170161372Y-149253200D03*
D17*
X165520561Y-147186978D03*
X174802183Y-151319422D03*
D19*
X174548000Y-145645500D03*
X167713875Y-145383128D03*
%TD*%
D17*
%TO.C,SW23*%
X167052183Y-168711722D03*
X157770561Y-164579278D03*
D18*
X162411372Y-166645500D03*
D19*
X166798000Y-163037800D03*
X159963875Y-162775428D03*
%TD*%
D22*
%TO.C,SW24*%
X149251048Y-179038780D03*
D17*
X152871922Y-188116317D03*
D18*
X150805700Y-192757128D03*
X163173480Y-185237447D03*
D17*
X148739478Y-197397939D03*
D18*
X153493148Y-206979828D03*
D22*
X139570716Y-200781162D03*
D19*
X147198000Y-188370500D03*
X146935628Y-195204625D03*
%TD*%
D17*
%TO.C,SW25*%
X226778128Y-129761546D03*
D18*
X222137317Y-131827768D03*
D17*
X217496506Y-133893990D03*
D19*
X222391500Y-126153846D03*
X217623597Y-131057029D03*
%TD*%
D17*
%TO.C,SW26*%
X234528128Y-147161546D03*
D18*
X229887317Y-149227768D03*
D17*
X225246506Y-151293990D03*
D19*
X230141500Y-143553846D03*
X225373597Y-148457029D03*
%TD*%
D18*
%TO.C,SW27*%
X237637317Y-166627768D03*
D17*
X242278128Y-164561546D03*
X232996506Y-168693990D03*
D19*
X237891500Y-160953846D03*
X233123597Y-165857029D03*
%TD*%
D17*
%TO.C,SW28*%
X251333800Y-197365474D03*
X247201356Y-188083852D03*
D22*
X250822230Y-179006315D03*
D18*
X246580129Y-206947364D03*
X236899797Y-185204982D03*
X249267578Y-192724663D03*
D22*
X260502562Y-200748697D03*
D19*
X254941500Y-192978846D03*
X250038317Y-188210943D03*
%TD*%
D17*
%TO.C,SW29*%
X232971506Y-121793990D03*
D18*
X237612317Y-119727768D03*
D17*
X242253128Y-117661546D03*
D19*
X237866500Y-114053846D03*
X233098597Y-118957029D03*
%TD*%
D17*
%TO.C,SW30*%
X250028128Y-135061546D03*
X240746506Y-139193990D03*
D18*
X245387317Y-137127768D03*
D19*
X245641500Y-131453846D03*
X240873597Y-136357029D03*
%TD*%
D18*
%TO.C,SW31*%
X253112317Y-154527768D03*
D17*
X248471506Y-156593990D03*
X257753128Y-152461546D03*
D19*
X253366500Y-148853846D03*
X248598597Y-153757029D03*
%TD*%
D17*
%TO.C,SW32*%
X265833800Y-183090474D03*
D18*
X263767578Y-178449663D03*
D17*
X261701356Y-173808852D03*
D19*
X269441500Y-178703846D03*
X264538317Y-173935943D03*
%TD*%
D17*
%TO.C,SW33*%
X257703128Y-105561546D03*
X248421506Y-109693990D03*
D18*
X253062317Y-107627768D03*
D19*
X253316500Y-101953846D03*
X248548597Y-106857029D03*
%TD*%
D17*
%TO.C,SW34*%
X256171506Y-127093990D03*
D18*
X260812317Y-125027768D03*
D17*
X265453128Y-122961546D03*
D19*
X261066500Y-119353846D03*
X256298597Y-124257029D03*
%TD*%
D17*
%TO.C,SW35*%
X263921506Y-144493990D03*
D18*
X268562317Y-142427768D03*
D17*
X273203128Y-140361546D03*
D19*
X268816500Y-136753846D03*
X264048597Y-141657029D03*
%TD*%
D18*
%TO.C,SW37*%
X272427317Y-104247768D03*
D17*
X277068128Y-102181546D03*
X267786506Y-106313990D03*
D19*
X272681500Y-98573846D03*
X267913597Y-103477029D03*
%TD*%
D17*
%TO.C,SW38*%
X284793128Y-119556546D03*
D18*
X280152317Y-121622768D03*
D17*
X275511506Y-123688990D03*
D19*
X280406500Y-115948846D03*
X275638597Y-120852029D03*
%TD*%
D17*
%TO.C,SW39*%
X283261506Y-141088990D03*
X292543128Y-136956546D03*
D18*
X287902317Y-139022768D03*
D19*
X288156500Y-133348846D03*
X283388597Y-138252029D03*
%TD*%
D17*
%TO.C,SW40*%
X291011506Y-158488990D03*
X300293128Y-154356546D03*
D18*
X295652317Y-156422768D03*
D19*
X295906500Y-150748846D03*
X291138597Y-155652029D03*
%TD*%
D17*
%TO.C,SW41*%
X287111506Y-102888990D03*
X296393128Y-98756546D03*
D18*
X291752317Y-100822768D03*
D19*
X292006500Y-95148846D03*
X287238597Y-100052029D03*
%TD*%
D17*
%TO.C,SW42*%
X294871506Y-120293990D03*
X304153128Y-116161546D03*
D18*
X299512317Y-118227768D03*
D19*
X299766500Y-112553846D03*
X294998597Y-117457029D03*
%TD*%
D18*
%TO.C,SW43*%
X307237317Y-135652768D03*
D17*
X302596506Y-137718990D03*
X311878128Y-133586546D03*
D19*
X307491500Y-129978846D03*
X302723597Y-134882029D03*
%TD*%
D18*
%TO.C,SW44*%
X314987317Y-153027768D03*
D17*
X319628128Y-150961546D03*
X310346506Y-155093990D03*
D19*
X315241500Y-147353846D03*
X310473597Y-152257029D03*
%TD*%
D17*
%TO.C,SW45*%
X317678128Y-99711546D03*
D18*
X313037317Y-101777768D03*
D17*
X308396506Y-103843990D03*
D19*
X313291500Y-96103846D03*
X308523597Y-101007029D03*
%TD*%
D17*
%TO.C,SW46*%
X325428128Y-117111546D03*
X316146506Y-121243990D03*
D18*
X320787317Y-119177768D03*
D19*
X321041500Y-113503846D03*
X316273597Y-118407029D03*
%TD*%
D17*
%TO.C,SW47*%
X323896506Y-138668990D03*
X333178128Y-134536546D03*
D18*
X328537317Y-136602768D03*
D19*
X328791500Y-130928846D03*
X324023597Y-135832029D03*
%TD*%
D17*
%TO.C,SW48*%
X331621506Y-156043990D03*
D18*
X336262317Y-153977768D03*
D17*
X340903128Y-151911546D03*
D19*
X336516500Y-148303846D03*
X331748597Y-153207029D03*
%TD*%
D17*
%TO.C,SW16*%
X124821922Y-157366317D03*
X120689478Y-166647939D03*
D18*
X122755700Y-162007128D03*
D19*
X119148000Y-157620500D03*
X118885628Y-164454625D03*
%TD*%
D17*
%TO.C,SW36*%
X279333800Y-166640474D03*
D18*
X277267578Y-161999663D03*
D17*
X275201356Y-157358852D03*
D19*
X282941500Y-162253846D03*
X278038317Y-157485943D03*
%TD*%
D13*
%TO.C,D11*%
X119507000Y-131826000D03*
D14*
X112545784Y-128726667D03*
%TD*%
D23*
%TO.C,SW49*%
X196700000Y-128016000D03*
X203200000Y-128016000D03*
X203200000Y-123516000D03*
X196700000Y-123516000D03*
%TD*%
M02*
