%TF.GenerationSoftware,KiCad,Pcbnew,6.0.4-1.fc35*%
%TF.CreationDate,2022-04-29T05:39:44+02:00*%
%TF.ProjectId,lineata,6c696e65-6174-4612-9e6b-696361645f70,0.1*%
%TF.SameCoordinates,Original*%
%TF.FileFunction,Soldermask,Top*%
%TF.FilePolarity,Negative*%
%FSLAX46Y46*%
G04 Gerber Fmt 4.6, Leading zero omitted, Abs format (unit mm)*
G04 Created by KiCad (PCBNEW 6.0.4-1.fc35) date 2022-04-29 05:39:44*
%MOMM*%
%LPD*%
G01*
G04 APERTURE LIST*
G04 Aperture macros list*
%AMHorizOval*
0 Thick line with rounded ends*
0 $1 width*
0 $2 $3 position (X,Y) of the first rounded end (center of the circle)*
0 $4 $5 position (X,Y) of the second rounded end (center of the circle)*
0 Add line between two ends*
20,1,$1,$2,$3,$4,$5,0*
0 Add two circle primitives to create the rounded ends*
1,1,$1,$2,$3*
1,1,$1,$4,$5*%
%AMRotRect*
0 Rectangle, with rotation*
0 The origin of the aperture is its center*
0 $1 length*
0 $2 width*
0 $3 Rotation angle, in degrees counterclockwise*
0 Add horizontal line*
21,1,$1,$2,0,0,$3*%
G04 Aperture macros list end*
%ADD10RotRect,1.600000X1.600000X156.000000*%
%ADD11HorizOval,1.600000X0.000000X0.000000X0.000000X0.000000X0*%
%ADD12RotRect,1.600000X1.600000X24.000000*%
%ADD13HorizOval,1.600000X0.000000X0.000000X0.000000X0.000000X0*%
%ADD14C,1.700000*%
%ADD15C,4.000000*%
%ADD16C,2.200000*%
%ADD17R,1.600000X1.600000*%
%ADD18O,1.600000X1.600000*%
%ADD19C,3.050000*%
%ADD20C,2.000000*%
G04 APERTURE END LIST*
D10*
%TO.C,D2*%
X86677500Y-112014000D03*
D11*
X79716284Y-108914667D03*
%TD*%
D10*
%TO.C,D3*%
X78930500Y-129476500D03*
D11*
X71969284Y-126377167D03*
%TD*%
D10*
%TO.C,D4*%
X71183500Y-146812000D03*
D11*
X64222284Y-143712667D03*
%TD*%
D10*
%TO.C,D5*%
X115697000Y-93599000D03*
D11*
X108735784Y-90499667D03*
%TD*%
D10*
%TO.C,D6*%
X107950000Y-111036100D03*
D11*
X100988784Y-107936767D03*
%TD*%
D10*
%TO.C,D7*%
X100177600Y-128460500D03*
D11*
X93216384Y-125361167D03*
%TD*%
D10*
%TO.C,D8*%
X92456000Y-145859500D03*
D11*
X85494784Y-142760167D03*
%TD*%
D10*
%TO.C,D9*%
X135001000Y-97028000D03*
D11*
X128039784Y-93928667D03*
%TD*%
D10*
%TO.C,D10*%
X127317500Y-114490500D03*
D11*
X120356284Y-111391167D03*
%TD*%
D10*
%TO.C,D12*%
X111823500Y-149225000D03*
D11*
X104862284Y-146125667D03*
%TD*%
D10*
%TO.C,D13*%
X154432000Y-100457000D03*
D11*
X147470784Y-97357667D03*
%TD*%
D10*
%TO.C,D14*%
X146558000Y-117792500D03*
D11*
X139596784Y-114693167D03*
%TD*%
D10*
%TO.C,D15*%
X138874500Y-135318500D03*
D11*
X131913284Y-132219167D03*
%TD*%
D10*
%TO.C,D16*%
X131127500Y-152654000D03*
D11*
X124166284Y-149554667D03*
%TD*%
D10*
%TO.C,D17*%
X170053000Y-112649000D03*
D11*
X163091784Y-109549667D03*
%TD*%
D10*
%TO.C,D18*%
X162115500Y-129921000D03*
D11*
X155154284Y-126821667D03*
%TD*%
D10*
%TO.C,D19*%
X154368500Y-147320000D03*
D11*
X147407284Y-144220667D03*
%TD*%
D10*
%TO.C,D20*%
X146621500Y-164782500D03*
D11*
X139660284Y-161683167D03*
%TD*%
D10*
%TO.C,D21*%
X185356500Y-124587000D03*
D11*
X178395284Y-121487667D03*
%TD*%
D10*
%TO.C,D22*%
X177546000Y-142049500D03*
D11*
X170584784Y-138950167D03*
%TD*%
D10*
%TO.C,D23*%
X169799000Y-159512000D03*
D11*
X162837784Y-156412667D03*
%TD*%
D10*
%TO.C,D24*%
X162052000Y-176847500D03*
D11*
X155090784Y-173748167D03*
%TD*%
D12*
%TO.C,D25*%
X214737000Y-124587846D03*
D13*
X221698216Y-121488513D03*
%TD*%
D12*
%TO.C,D26*%
X222484000Y-142049500D03*
D13*
X229445216Y-138950167D03*
%TD*%
D12*
%TO.C,D27*%
X230187500Y-159448500D03*
D13*
X237148716Y-156349167D03*
%TD*%
D12*
%TO.C,D28*%
X237914500Y-176847500D03*
D13*
X244875716Y-173748167D03*
%TD*%
D12*
%TO.C,D29*%
X230291500Y-112522000D03*
D13*
X237252716Y-109422667D03*
%TD*%
D12*
%TO.C,D30*%
X238061500Y-130003846D03*
D13*
X245022716Y-126904513D03*
%TD*%
D12*
%TO.C,D31*%
X245681500Y-147320000D03*
D13*
X252642716Y-144220667D03*
%TD*%
D12*
%TO.C,D32*%
X253365000Y-164846000D03*
D13*
X260326216Y-161746667D03*
%TD*%
D12*
%TO.C,D33*%
X245681500Y-100453846D03*
D13*
X252642716Y-97354513D03*
%TD*%
D12*
%TO.C,D34*%
X253428500Y-117903846D03*
D13*
X260389716Y-114804513D03*
%TD*%
D12*
%TO.C,D35*%
X261112000Y-135303846D03*
D13*
X268073216Y-132204513D03*
%TD*%
D12*
%TO.C,D36*%
X269041500Y-152590500D03*
D13*
X276002716Y-149491167D03*
%TD*%
D12*
%TO.C,D37*%
X265112500Y-97053846D03*
D13*
X272073716Y-93954513D03*
%TD*%
D12*
%TO.C,D38*%
X272732500Y-114427000D03*
D13*
X279693716Y-111327667D03*
%TD*%
D12*
%TO.C,D39*%
X280541500Y-131889500D03*
D13*
X287502716Y-128790167D03*
%TD*%
D12*
%TO.C,D40*%
X288226500Y-149288500D03*
D13*
X295187716Y-146189167D03*
%TD*%
D12*
%TO.C,D41*%
X284289500Y-93599000D03*
D13*
X291250716Y-90499667D03*
%TD*%
D12*
%TO.C,D42*%
X292163500Y-110998000D03*
D13*
X299124716Y-107898667D03*
%TD*%
D12*
%TO.C,D43*%
X299783500Y-128460500D03*
D13*
X306744716Y-125361167D03*
%TD*%
D12*
%TO.C,D44*%
X307641500Y-145859500D03*
D13*
X314602716Y-142760167D03*
%TD*%
D12*
%TO.C,D45*%
X305562000Y-94551500D03*
D13*
X312523216Y-91452167D03*
%TD*%
D12*
%TO.C,D46*%
X313372500Y-112053846D03*
D13*
X320333716Y-108954513D03*
%TD*%
D12*
%TO.C,D47*%
X321183000Y-129476500D03*
D13*
X328144216Y-126377167D03*
%TD*%
D12*
%TO.C,D48*%
X328866500Y-146875500D03*
D13*
X335827716Y-143776167D03*
%TD*%
D14*
%TO.C,SW2*%
X74645561Y-117136978D03*
D15*
X79286372Y-119203200D03*
D14*
X83927183Y-121269422D03*
D16*
X83673000Y-115595500D03*
X76838875Y-115333128D03*
%TD*%
D14*
%TO.C,SW3*%
X76177183Y-138669422D03*
D15*
X71536372Y-136603200D03*
D14*
X66895561Y-134536978D03*
D16*
X75923000Y-132995500D03*
X69088875Y-132733128D03*
%TD*%
D14*
%TO.C,SW4*%
X68427183Y-156069422D03*
X59145561Y-151936978D03*
D15*
X63786372Y-154003200D03*
D16*
X68173000Y-150395500D03*
X61338875Y-150133128D03*
%TD*%
D14*
%TO.C,SW5*%
X112952183Y-102894422D03*
D15*
X108311372Y-100828200D03*
D14*
X103670561Y-98761978D03*
D16*
X112698000Y-97220500D03*
X105863875Y-96958128D03*
%TD*%
D15*
%TO.C,SW6*%
X100561372Y-118228200D03*
D14*
X95920561Y-116161978D03*
X105202183Y-120294422D03*
D16*
X104948000Y-114620500D03*
X98113875Y-114358128D03*
%TD*%
D14*
%TO.C,SW7*%
X97452183Y-137694422D03*
X88170561Y-133561978D03*
D15*
X92811372Y-135628200D03*
D16*
X97198000Y-132020500D03*
X90363875Y-131758128D03*
%TD*%
D14*
%TO.C,SW8*%
X89702183Y-155119422D03*
D15*
X85061372Y-153053200D03*
D14*
X80420561Y-150986978D03*
D16*
X89448000Y-149445500D03*
X82613875Y-149183128D03*
%TD*%
D14*
%TO.C,SW9*%
X123020561Y-102161978D03*
D15*
X127661372Y-104228200D03*
D14*
X132302183Y-106294422D03*
D16*
X132048000Y-100620500D03*
X125213875Y-100358128D03*
%TD*%
D15*
%TO.C,SW10*%
X119911372Y-121628200D03*
D14*
X124552183Y-123694422D03*
X115270561Y-119561978D03*
D16*
X124298000Y-118020500D03*
X117463875Y-117758128D03*
%TD*%
D15*
%TO.C,SW11*%
X112161372Y-139028200D03*
D14*
X116802183Y-141094422D03*
X107520561Y-136961978D03*
D16*
X116548000Y-135420500D03*
X109713875Y-135158128D03*
%TD*%
D15*
%TO.C,SW12*%
X104411372Y-156453200D03*
D14*
X99770561Y-154386978D03*
X109052183Y-158519422D03*
D16*
X108798000Y-152845500D03*
X101963875Y-152583128D03*
%TD*%
D15*
%TO.C,SW13*%
X147011372Y-107628200D03*
D14*
X142370561Y-105561978D03*
X151652183Y-109694422D03*
D16*
X151398000Y-104020500D03*
X144563875Y-103758128D03*
%TD*%
D15*
%TO.C,SW14*%
X139236372Y-125053200D03*
D14*
X143877183Y-127119422D03*
X134595561Y-122986978D03*
D16*
X143623000Y-121445500D03*
X136788875Y-121183128D03*
%TD*%
D15*
%TO.C,SW15*%
X131486372Y-142445500D03*
D14*
X136127183Y-144511722D03*
X126845561Y-140379278D03*
D16*
X135873000Y-138837800D03*
X129038875Y-138575428D03*
%TD*%
D15*
%TO.C,SW17*%
X162461372Y-119728200D03*
D14*
X167102183Y-121794422D03*
X157820561Y-117661978D03*
D16*
X166848000Y-116120500D03*
X160013875Y-115858128D03*
%TD*%
D14*
%TO.C,SW18*%
X159352183Y-139194422D03*
X150070561Y-135061978D03*
D15*
X154711372Y-137128200D03*
D16*
X159098000Y-133520500D03*
X152263875Y-133258128D03*
%TD*%
D14*
%TO.C,SW19*%
X142320561Y-152486978D03*
D15*
X146961372Y-154553200D03*
D14*
X151602183Y-156619422D03*
D16*
X151348000Y-150945500D03*
X144513875Y-150683128D03*
%TD*%
D17*
%TO.C,U1*%
X207645000Y-120523000D03*
D18*
X207645000Y-117983000D03*
X207645000Y-115443000D03*
X207645000Y-112903000D03*
X207645000Y-110363000D03*
X207645000Y-107823000D03*
X207645000Y-105283000D03*
X207645000Y-102743000D03*
X207645000Y-100203000D03*
X207645000Y-97663000D03*
X207645000Y-95123000D03*
X207645000Y-92583000D03*
X192405000Y-92583000D03*
X192405000Y-95123000D03*
X192405000Y-97663000D03*
X192405000Y-100203000D03*
X192405000Y-102743000D03*
X192405000Y-105283000D03*
X192405000Y-107823000D03*
X192405000Y-110363000D03*
X192405000Y-112903000D03*
X192405000Y-115443000D03*
X192405000Y-117983000D03*
X192405000Y-120523000D03*
%TD*%
D10*
%TO.C,D1*%
X94335600Y-94576900D03*
D11*
X87374384Y-91477567D03*
%TD*%
D14*
%TO.C,SW1*%
X91677183Y-103869422D03*
D15*
X87036372Y-101803200D03*
D14*
X82395561Y-99736978D03*
D16*
X91423000Y-98195500D03*
X84588875Y-97933128D03*
%TD*%
D15*
%TO.C,SW20*%
X136305700Y-178482128D03*
D14*
X134239478Y-183122939D03*
X138371922Y-173841317D03*
D16*
X132698000Y-174095500D03*
X132435628Y-180929625D03*
%TD*%
D14*
%TO.C,SW21*%
X173270561Y-129761978D03*
D15*
X177911372Y-131828200D03*
D14*
X182552183Y-133894422D03*
D16*
X182298000Y-128220500D03*
X175463875Y-127958128D03*
%TD*%
D15*
%TO.C,SW22*%
X170161372Y-149253200D03*
D14*
X165520561Y-147186978D03*
X174802183Y-151319422D03*
D16*
X174548000Y-145645500D03*
X167713875Y-145383128D03*
%TD*%
D14*
%TO.C,SW23*%
X167052183Y-168711722D03*
X157770561Y-164579278D03*
D15*
X162411372Y-166645500D03*
D16*
X166798000Y-163037800D03*
X159963875Y-162775428D03*
%TD*%
D19*
%TO.C,SW24*%
X149251048Y-179038780D03*
D14*
X152871922Y-188116317D03*
D15*
X150805700Y-192757128D03*
X163173480Y-185237447D03*
D14*
X148739478Y-197397939D03*
D15*
X153493148Y-206979828D03*
D19*
X139570716Y-200781162D03*
D16*
X147198000Y-188370500D03*
X146935628Y-195204625D03*
%TD*%
D14*
%TO.C,SW25*%
X226778128Y-129761546D03*
D15*
X222137317Y-131827768D03*
D14*
X217496506Y-133893990D03*
D16*
X222391500Y-126153846D03*
X217623597Y-131057029D03*
%TD*%
D14*
%TO.C,SW26*%
X234528128Y-147161546D03*
D15*
X229887317Y-149227768D03*
D14*
X225246506Y-151293990D03*
D16*
X230141500Y-143553846D03*
X225373597Y-148457029D03*
%TD*%
D15*
%TO.C,SW27*%
X237637317Y-166627768D03*
D14*
X242278128Y-164561546D03*
X232996506Y-168693990D03*
D16*
X237891500Y-160953846D03*
X233123597Y-165857029D03*
%TD*%
D14*
%TO.C,SW28*%
X251333800Y-197365474D03*
X247201356Y-188083852D03*
D19*
X250822230Y-179006315D03*
D15*
X246580129Y-206947364D03*
X236899797Y-185204982D03*
X249267578Y-192724663D03*
D19*
X260502562Y-200748697D03*
D16*
X254941500Y-192978846D03*
X250038317Y-188210943D03*
%TD*%
D14*
%TO.C,SW29*%
X232971506Y-121793990D03*
D15*
X237612317Y-119727768D03*
D14*
X242253128Y-117661546D03*
D16*
X237866500Y-114053846D03*
X233098597Y-118957029D03*
%TD*%
D14*
%TO.C,SW30*%
X250028128Y-135061546D03*
X240746506Y-139193990D03*
D15*
X245387317Y-137127768D03*
D16*
X245641500Y-131453846D03*
X240873597Y-136357029D03*
%TD*%
D15*
%TO.C,SW31*%
X253112317Y-154527768D03*
D14*
X248471506Y-156593990D03*
X257753128Y-152461546D03*
D16*
X253366500Y-148853846D03*
X248598597Y-153757029D03*
%TD*%
D14*
%TO.C,SW32*%
X265833800Y-183090474D03*
D15*
X263767578Y-178449663D03*
D14*
X261701356Y-173808852D03*
D16*
X269441500Y-178703846D03*
X264538317Y-173935943D03*
%TD*%
D14*
%TO.C,SW33*%
X257703128Y-105561546D03*
X248421506Y-109693990D03*
D15*
X253062317Y-107627768D03*
D16*
X253316500Y-101953846D03*
X248548597Y-106857029D03*
%TD*%
D14*
%TO.C,SW34*%
X256171506Y-127093990D03*
D15*
X260812317Y-125027768D03*
D14*
X265453128Y-122961546D03*
D16*
X261066500Y-119353846D03*
X256298597Y-124257029D03*
%TD*%
D14*
%TO.C,SW35*%
X263921506Y-144493990D03*
D15*
X268562317Y-142427768D03*
D14*
X273203128Y-140361546D03*
D16*
X268816500Y-136753846D03*
X264048597Y-141657029D03*
%TD*%
D15*
%TO.C,SW37*%
X272427317Y-104247768D03*
D14*
X277068128Y-102181546D03*
X267786506Y-106313990D03*
D16*
X272681500Y-98573846D03*
X267913597Y-103477029D03*
%TD*%
D14*
%TO.C,SW38*%
X284793128Y-119556546D03*
D15*
X280152317Y-121622768D03*
D14*
X275511506Y-123688990D03*
D16*
X280406500Y-115948846D03*
X275638597Y-120852029D03*
%TD*%
D14*
%TO.C,SW39*%
X283261506Y-141088990D03*
X292543128Y-136956546D03*
D15*
X287902317Y-139022768D03*
D16*
X288156500Y-133348846D03*
X283388597Y-138252029D03*
%TD*%
D14*
%TO.C,SW40*%
X291011506Y-158488990D03*
X300293128Y-154356546D03*
D15*
X295652317Y-156422768D03*
D16*
X295906500Y-150748846D03*
X291138597Y-155652029D03*
%TD*%
D14*
%TO.C,SW41*%
X287111506Y-102888990D03*
X296393128Y-98756546D03*
D15*
X291752317Y-100822768D03*
D16*
X292006500Y-95148846D03*
X287238597Y-100052029D03*
%TD*%
D14*
%TO.C,SW42*%
X294871506Y-120293990D03*
X304153128Y-116161546D03*
D15*
X299512317Y-118227768D03*
D16*
X299766500Y-112553846D03*
X294998597Y-117457029D03*
%TD*%
D15*
%TO.C,SW43*%
X307237317Y-135652768D03*
D14*
X302596506Y-137718990D03*
X311878128Y-133586546D03*
D16*
X307491500Y-129978846D03*
X302723597Y-134882029D03*
%TD*%
D15*
%TO.C,SW44*%
X314987317Y-153027768D03*
D14*
X319628128Y-150961546D03*
X310346506Y-155093990D03*
D16*
X315241500Y-147353846D03*
X310473597Y-152257029D03*
%TD*%
D14*
%TO.C,SW45*%
X317678128Y-99711546D03*
D15*
X313037317Y-101777768D03*
D14*
X308396506Y-103843990D03*
D16*
X313291500Y-96103846D03*
X308523597Y-101007029D03*
%TD*%
D14*
%TO.C,SW46*%
X325428128Y-117111546D03*
X316146506Y-121243990D03*
D15*
X320787317Y-119177768D03*
D16*
X321041500Y-113503846D03*
X316273597Y-118407029D03*
%TD*%
D14*
%TO.C,SW47*%
X323896506Y-138668990D03*
X333178128Y-134536546D03*
D15*
X328537317Y-136602768D03*
D16*
X328791500Y-130928846D03*
X324023597Y-135832029D03*
%TD*%
D14*
%TO.C,SW48*%
X331621506Y-156043990D03*
D15*
X336262317Y-153977768D03*
D14*
X340903128Y-151911546D03*
D16*
X336516500Y-148303846D03*
X331748597Y-153207029D03*
%TD*%
D14*
%TO.C,SW16*%
X124821922Y-157366317D03*
X120689478Y-166647939D03*
D15*
X122755700Y-162007128D03*
D16*
X119148000Y-157620500D03*
X118885628Y-164454625D03*
%TD*%
D14*
%TO.C,SW36*%
X279333800Y-166640474D03*
D15*
X277267578Y-161999663D03*
D14*
X275201356Y-157358852D03*
D16*
X282941500Y-162253846D03*
X278038317Y-157485943D03*
%TD*%
D10*
%TO.C,D11*%
X119507000Y-131826000D03*
D11*
X112545784Y-128726667D03*
%TD*%
D20*
%TO.C,SW49*%
X196700000Y-128016000D03*
X203200000Y-128016000D03*
X203200000Y-123516000D03*
X196700000Y-123516000D03*
%TD*%
M02*
