M48
; DRILL file {KiCad 6.0.4-1.fc35} date Fri 29 Apr 2022 05:40:51 AM CEST
; FORMAT={-:-/ absolute / inch / decimal}
; #@! TF.CreationDate,2022-04-29T05:40:51+02:00
; #@! TF.GenerationSoftware,Kicad,Pcbnew,6.0.4-1.fc35
; #@! TF.FileFunction,NonPlated,1,2,NPTH
FMAT,2
INCH
; #@! TA.AperFunction,NonPlated,NPTH,ComponentDrill
T1C0.0669
; #@! TA.AperFunction,NonPlated,NPTH,ComponentDrill
T2C0.1201
; #@! TA.AperFunction,NonPlated,NPTH,ComponentDrill
T3C0.1575
%
G90
G05
T1
X2.3286Y-5.9818
X2.6337Y-5.2967
X2.694Y-6.1445
X2.9388Y-4.6117
X2.9991Y-5.4594
X3.1662Y-5.9444
X3.2439Y-3.9267
X3.3042Y-4.7744
X3.4713Y-5.2583
X3.5316Y-6.1071
X3.6093Y-4.0893
X3.7764Y-4.5733
X3.8367Y-5.421
X3.928Y-6.0782
X4.0815Y-3.8883
X4.1418Y-4.736
X4.2331Y-5.3922
X4.2934Y-6.2409
X4.4469Y-4.051
X4.5382Y-4.7072
X4.5985Y-5.5549
X4.7516Y-6.5609
X4.8433Y-4.0221
X4.9036Y-4.8699
X4.9142Y-6.1955
X4.9939Y-5.5267
X5.2087Y-4.1848
X5.285Y-7.2096
X5.299Y-4.842
X5.3593Y-5.6894
X5.4477Y-6.8441
X5.6032Y-6.0034
X5.6051Y-4.156
X5.6645Y-5.0047
X5.8559Y-7.7716
X5.9083Y-5.3174
X5.9686Y-6.1661
X5.9706Y-4.3187
X6.0186Y-7.4062
X6.2114Y-6.4795
X6.2134Y-4.6324
X6.2737Y-5.4801
X6.5166Y-5.7948
X6.5769Y-6.6422
X6.5788Y-4.7951
X6.8217Y-5.1087
X6.882Y-5.9575
X7.1871Y-5.2714
X8.5629Y-5.2714
X8.868Y-5.9565
X8.9283Y-5.1087
X9.1721Y-4.795
X9.1731Y-6.6415
X9.2334Y-5.7938
X9.4782Y-5.4801
X9.5375Y-4.6323
X9.5385Y-6.4788
X9.7323Y-7.4049
X9.7804Y-4.3187
X9.7823Y-6.1651
X9.8436Y-5.3174
X9.895Y-7.7703
X10.0855Y-5.0037
X10.1458Y-4.156
X10.1478Y-6.0024
X10.3032Y-6.8429
X10.3906Y-5.6887
X10.4509Y-4.841
X10.4659Y-7.2083
X10.5428Y-4.1856
X10.756Y-5.526
X10.8347Y-6.1952
X10.8469Y-4.8696
X10.9082Y-4.0229
X10.9974Y-6.5606
X11.152Y-5.5547
X11.2123Y-4.707
X11.3036Y-4.0507
X11.4571Y-6.2397
X11.5174Y-5.392
X11.6091Y-4.736
X11.669Y-3.8881
X11.8226Y-6.077
X11.9132Y-5.422
X11.9745Y-4.5733
X12.1416Y-4.0883
X12.2184Y-6.1061
X12.2787Y-5.2593
X12.4467Y-4.7734
X12.507Y-3.9257
X12.5838Y-5.9434
X12.7518Y-5.4594
X12.8121Y-4.6107
X13.056Y-6.1435
X13.1172Y-5.2967
X13.4214Y-5.9808
T2
X5.4949Y-7.9048
X5.876Y-7.0488
X9.8749Y-7.0475
X10.256Y-7.9035
T3
X2.5113Y-6.0631
X2.8164Y-5.3781
X3.1215Y-4.693
X3.3489Y-6.0257
X3.4266Y-4.008
X3.654Y-5.3397
X3.9591Y-4.6547
X4.1107Y-6.1596
X4.2642Y-3.9696
X4.4158Y-5.4736
X4.7209Y-4.7885
X4.8329Y-6.3782
X5.026Y-4.1035
X5.1766Y-5.6081
X5.3664Y-7.0269
X5.4817Y-4.9234
X5.7859Y-6.0848
X5.7878Y-4.2373
X5.9372Y-7.5889
X6.043Y-8.1488
X6.091Y-5.3987
X6.3941Y-6.5608
X6.3961Y-4.7137
X6.4242Y-7.2928
X6.6993Y-5.8761
X7.0044Y-5.1901
X8.7456Y-5.1901
X9.0507Y-5.8751
X9.3268Y-7.2915
X9.3548Y-4.7137
X9.3558Y-6.5601
X9.6609Y-5.3987
X9.7079Y-8.1475
X9.8137Y-7.5876
X9.9631Y-4.2373
X9.9651Y-6.0838
X10.2682Y-4.9224
X10.3846Y-7.0256
X10.5733Y-5.6074
X10.7255Y-4.1042
X10.916Y-6.3779
X11.0296Y-4.7883
X11.3347Y-5.4733
X11.4863Y-3.9694
X11.6399Y-6.1584
X11.7918Y-4.6546
X12.096Y-5.3407
X12.3243Y-4.007
X12.4011Y-6.0247
X12.6294Y-4.692
X12.9345Y-5.3781
X13.2387Y-6.0621
T0
M30
